<svg xmlns="http://www.w3.org/2000/svg" viewBox="0 0 260 188" role="img" aria-label="IAP Boys Weight 5-18 years">
<style>
    .axis { stroke: #111; stroke-width: 1.8; fill: none; }
    .tick { stroke: #666; stroke-width: 1; }
    .label { fill: #222; font: 9.5px Arial, sans-serif; text-anchor: middle; }
    .ylabel { fill: #222; font: 9.5px Arial, sans-serif; text-anchor: end; }
    .curve { fill: none; stroke: #8a8f96; stroke-width: 1.5; stroke-linecap: round; }
    .median { fill: none; stroke: #222; stroke-width: 2.1; stroke-linecap: round; }
    .percentile { fill: #444; font: 700 8px Arial, sans-serif; }
  </style>
<rect x="0" y="0" width="260" height="188" fill="#fff"/>
<defs><clipPath id="clip-boys-weight-5-18-minimal-svg-0"><rect x="45" y="22" width="170" height="140"/></clipPath></defs>
<path class="axis" d="M45 22 V162 H215"/>
<path class="tick" d="M45 162 V156"/>
<text class="label" x="45" y="178">5y</text>
<path class="tick" d="M87 162 V156"/>
<text class="label" x="87" y="178">8y</text>
<path class="tick" d="M130 162 V156"/>
<text class="label" x="130" y="178">11y</text>
<path class="tick" d="M173 162 V156"/>
<text class="label" x="173" y="178">14y</text>
<path class="tick" d="M215 162 V156"/>
<text class="label" x="215" y="178">18y</text>
<path class="tick" d="M45 22 H51"/>
<text class="ylabel" x="39" y="26">90</text>
<path class="tick" d="M45 57 H51"/>
<text class="ylabel" x="39" y="61">75</text>
<path class="tick" d="M45 92 H51"/>
<text class="ylabel" x="39" y="96">50</text>
<path class="tick" d="M45 127 H51"/>
<text class="ylabel" x="39" y="131">25</text>
<path class="tick" d="M45 162 H51"/>
<text class="ylabel" x="39" y="166">0</text>
<g clip-path="url(#clip-boys-weight-5-18-minimal-svg-0)">
<path class="curve" d="M45.00 124.36 L51.54 121.40 L58.08 117.98 L64.62 114.09 L71.15 110.04 L77.69 105.69 L84.23 100.71 L90.77 95.73 L97.31 91.22 L103.85 86.40 L110.38 81.42 L116.92 76.13 L123.46 70.69 L130.00 64.78 L136.54 59.18 L143.08 53.89 L149.62 49.07 L156.15 44.40 L162.69 40.20 L169.23 36.16 L175.77 32.73 L182.31 30.24 L188.85 28.53 L195.38 26.98 L201.92 25.89 L208.46 25.11 L215.00 24.49"/>
<path class="curve" d="M45.00 132.44 L51.54 130.42 L58.08 128.24 L64.62 125.76 L71.15 123.27 L77.69 120.62 L84.23 117.67 L90.77 114.56 L97.31 111.76 L103.85 108.64 L110.38 105.53 L116.92 102.11 L123.46 98.38 L130.00 94.33 L136.54 90.44 L143.08 86.40 L149.62 82.51 L156.15 78.31 L162.69 74.27 L169.23 70.07 L175.77 66.18 L182.31 63.07 L188.85 60.58 L195.38 58.40 L201.92 56.53 L208.46 55.13 L215.00 53.58"/>
<path class="median" d="M45.00 135.40 L51.54 133.69 L58.08 131.98 L64.62 129.80 L71.15 127.93 L77.69 125.76 L84.23 123.42 L90.77 120.93 L97.31 118.60 L103.85 116.27 L110.38 113.62 L116.92 110.98 L123.46 108.02 L130.00 104.60 L136.54 101.33 L143.08 97.91 L149.62 94.64 L156.15 90.91 L162.69 87.02 L169.23 82.98 L175.77 79.40 L182.31 76.13 L188.85 73.64 L195.38 71.47 L201.92 69.44 L208.46 67.73 L215.00 66.18"/>
<path class="curve" d="M45.00 137.73 L51.54 136.33 L58.08 134.93 L64.62 133.07 L71.15 131.51 L77.69 129.80 L84.23 127.93 L90.77 125.91 L97.31 124.20 L103.85 122.18 L110.38 120.16 L116.92 117.98 L123.46 115.64 L130.00 112.84 L136.54 110.20 L143.08 107.40 L149.62 104.44 L156.15 101.18 L162.69 97.76 L169.23 94.02 L175.77 90.60 L182.31 87.49 L188.85 85.00 L195.38 82.82 L201.92 80.96 L208.46 79.24 L215.00 77.53"/>
<path class="curve" d="M45.00 141.47 L51.54 140.53 L58.08 139.44 L64.62 138.20 L71.15 137.11 L77.69 136.02 L84.23 134.78 L90.77 133.53 L97.31 132.29 L103.85 131.04 L110.38 129.80 L116.92 128.40 L123.46 126.84 L130.00 124.98 L136.54 123.27 L143.08 121.40 L149.62 119.22 L156.15 116.89 L162.69 114.24 L169.23 111.29 L175.77 108.33 L182.31 105.84 L188.85 103.67 L195.38 101.80 L201.92 100.09 L208.46 98.53 L215.00 96.98"/>
</g>
<text class="percentile" x="223" y="36">P97</text>
<text class="percentile" x="223" y="54">P75</text>
<text class="percentile" x="223" y="72">P50</text>
<text class="percentile" x="223" y="90">P25</text>
<text class="percentile" x="223" y="108">P3</text>
</svg>