<svg xmlns="http://www.w3.org/2000/svg" viewBox="0 0 260 188" role="img" aria-label="IAP Boys BMI Chart 5-18 years">
<style>
    .axis { stroke: #111; stroke-width: 1; fill: none; }
    .tick { stroke: #666; stroke-width: 1; }
    .label { fill: #222; font: 9.5px Arial, sans-serif; text-anchor: middle; }
    .ylabel { fill: #222; font: 9.5px Arial, sans-serif; text-anchor: end; }
    .curve { fill: none; stroke: #8a8f96; stroke-width: 1; stroke-linecap: round; }
    .median { fill: none; stroke: #222; stroke-width: 1; stroke-linecap: round; }
    .percentile { fill: #444; font: 700 8px Arial, sans-serif; }
  </style>
<rect x="0" y="0" width="260" height="188" fill="#fff"/>
<defs><clipPath id="clip-boys-bmi-5-18-minimal-svg-0"><rect x="45" y="22" width="170" height="140"/></clipPath></defs>
<path class="axis" d="M45 22 V162 H215"/>
<path class="tick" d="M45 162 V156"/>
<text class="label" x="45" y="178">5y</text>
<path class="tick" d="M87 162 V156"/>
<text class="label" x="87" y="178">8y</text>
<path class="tick" d="M130 162 V156"/>
<text class="label" x="130" y="178">11y</text>
<path class="tick" d="M173 162 V156"/>
<text class="label" x="173" y="178">14y</text>
<path class="tick" d="M215 162 V156"/>
<text class="label" x="215" y="178">18y</text>
<path class="tick" d="M45 22 H51"/>
<text class="ylabel" x="39" y="26">35</text>
<path class="tick" d="M45 57 H51"/>
<text class="ylabel" x="39" y="61">25</text>
<path class="tick" d="M45 92 H51"/>
<text class="ylabel" x="39" y="96">20</text>
<path class="tick" d="M45 127 H51"/>
<text class="ylabel" x="39" y="131">15</text>
<path class="tick" d="M45 162 H51"/>
<text class="ylabel" x="39" y="166">10</text>
<g clip-path="url(#clip-boys-bmi-5-18-minimal-svg-0)">
<path class="curve" d="M45.00 120.00 L51.54 119.44 L58.08 118.32 L64.62 117.20 L71.15 116.08 L77.69 114.40 L84.23 112.72 L90.77 110.48 L97.31 108.24 L103.85 105.44 L110.38 103.20 L116.92 100.40 L123.46 97.60 L130.00 94.24 L136.54 91.44 L143.08 89.20 L149.62 86.96 L156.15 84.72 L162.69 82.48 L169.23 80.80 L175.77 78.56 L182.31 76.88 L188.85 75.20 L195.38 73.52 L201.92 72.40 L208.46 70.72 L215.00 69.04"/>
<path class="curve" d="M45.00 130.08 L51.54 129.52 L58.08 128.40 L64.62 127.84 L71.15 126.72 L77.69 125.60 L84.23 124.48 L90.77 122.80 L97.31 121.12 L103.85 119.44 L110.38 117.20 L116.92 115.52 L123.46 113.28 L130.00 111.04 L136.54 108.80 L143.08 107.12 L149.62 104.88 L156.15 103.20 L162.69 101.52 L169.23 99.84 L175.77 98.16 L182.31 96.48 L188.85 94.80 L195.38 92.56 L201.92 91.44 L208.46 89.76 L215.00 88.08"/>
<path class="median" d="M45.00 135.68 L51.54 135.12 L58.08 134.56 L64.62 134.00 L71.15 133.44 L77.69 132.32 L84.23 131.20 L90.77 130.08 L97.31 128.96 L103.85 127.28 L110.38 126.16 L116.92 124.48 L123.46 122.80 L130.00 121.12 L136.54 118.88 L143.08 117.76 L149.62 116.08 L156.15 114.40 L162.69 113.28 L169.23 111.60 L175.77 109.92 L182.31 108.24 L188.85 106.56 L195.38 104.88 L201.92 103.20 L208.46 101.52 L215.00 99.84"/>
<path class="curve" d="M45.00 141.84 L51.54 141.28 L58.08 141.28 L64.62 140.72 L71.15 140.16 L77.69 139.04 L84.23 138.48 L90.77 137.36 L97.31 136.80 L103.85 135.68 L110.38 134.56 L116.92 133.44 L123.46 131.76 L130.00 130.64 L136.54 129.52 L143.08 128.40 L149.62 126.72 L156.15 125.60 L162.69 124.48 L169.23 123.36 L175.77 121.68 L182.31 120.56 L188.85 118.88 L195.38 117.20 L201.92 115.52 L208.46 113.84 L215.00 112.16"/>
<path class="curve" d="M45.00 146.32 L51.54 145.76 L58.08 145.76 L64.62 145.20 L71.15 144.64 L77.69 144.08 L84.23 143.52 L90.77 142.96 L97.31 142.40 L103.85 141.28 L110.38 140.72 L116.92 139.60 L123.46 139.04 L130.00 137.92 L136.54 136.80 L143.08 136.24 L149.62 135.12 L156.15 134.56 L162.69 133.44 L169.23 132.32 L175.77 131.20 L182.31 129.52 L188.85 128.40 L195.38 126.72 L201.92 125.04 L208.46 123.92 L215.00 122.24"/>
<path class="curve" d="M45.00 148.56 L51.54 148.56 L58.08 148.00 L64.62 148.00 L71.15 147.44 L77.69 146.88 L84.23 146.32 L90.77 145.76 L97.31 145.20 L103.85 144.64 L110.38 144.08 L116.92 143.52 L123.46 142.40 L130.00 141.84 L136.54 140.72 L143.08 140.16 L149.62 139.60 L156.15 138.48 L162.69 137.92 L169.23 136.80 L175.77 135.68 L182.31 134.56 L188.85 133.44 L195.38 131.76 L201.92 130.64 L208.46 128.96 L215.00 127.28"/>
<path class="curve" d="M45.00 150.24 L51.54 149.68 L58.08 149.68 L64.62 149.12 L71.15 149.12 L77.69 148.56 L84.23 148.00 L90.77 147.44 L97.31 146.88 L103.85 146.32 L110.38 145.76 L116.92 145.20 L123.46 144.64 L130.00 144.08 L136.54 143.52 L143.08 142.40 L149.62 141.84 L156.15 141.28 L162.69 140.72 L169.23 139.60 L175.77 138.48 L182.31 137.36 L188.85 136.24 L195.38 134.56 L201.92 133.44 L208.46 131.76 L215.00 130.64"/>
</g>
<text class="percentile" x="223" y="36">AE27</text>
<text class="percentile" x="223" y="54">AE23</text>
<text class="percentile" x="223" y="72">P50</text>
<text class="percentile" x="223" y="90">P25</text>
<text class="percentile" x="223" y="108">P10</text>
<text class="percentile" x="223" y="126">P5</text>
<text class="percentile" x="223" y="144">P3</text>
</svg>