<svg xmlns="http://www.w3.org/2000/svg" viewBox="0 0 260 188" role="img" aria-label="IAP Boys BMI Chart 5-18 years">
<style>
    .axis { stroke: #111; stroke-width: 1.8; fill: none; }
    .tick { stroke: #666; stroke-width: 1; }
    .label { fill: #222; font: 9.5px Arial, sans-serif; text-anchor: middle; }
    .ylabel { fill: #222; font: 9.5px Arial, sans-serif; text-anchor: end; }
    .curve { fill: none; stroke: #8a8f96; stroke-width: 1.5; stroke-linecap: round; }
    .median { fill: none; stroke: #222; stroke-width: 2.1; stroke-linecap: round; }
    .percentile { fill: #444; font: 700 8px Arial, sans-serif; }
  </style>
<rect x="0" y="0" width="260" height="188" fill="#fff"/>
<defs><clipPath id="clip-boys-bmi-5-18-minimal-svg-0"><rect x="45" y="22" width="170" height="140"/></clipPath></defs>
<path class="axis" d="M45 22 V162 H215"/>
<path class="tick" d="M45 162 V156"/>
<text class="label" x="45" y="178">5y</text>
<path class="tick" d="M87 162 V156"/>
<text class="label" x="87" y="178">8y</text>
<path class="tick" d="M130 162 V156"/>
<text class="label" x="130" y="178">11y</text>
<path class="tick" d="M173 162 V156"/>
<text class="label" x="173" y="178">14y</text>
<path class="tick" d="M215 162 V156"/>
<text class="label" x="215" y="178">18y</text>
<path class="tick" d="M45 22 H51"/>
<text class="ylabel" x="39" y="26">35</text>
<path class="tick" d="M45 57 H51"/>
<text class="ylabel" x="39" y="61">25</text>
<path class="tick" d="M45 92 H51"/>
<text class="ylabel" x="39" y="96">20</text>
<path class="tick" d="M45 127 H51"/>
<text class="ylabel" x="39" y="131">15</text>
<path class="tick" d="M45 162 H51"/>
<text class="ylabel" x="39" y="166">10</text>
<g clip-path="url(#clip-boys-bmi-5-18-minimal-svg-0)">
<path class="curve" d="M45 84 C101 72, 171 48, 215 32"/>
<path class="curve" d="M45 108 C101 96, 171 72, 215 56"/>
<path class="median" d="M45 132 C101 120, 171 102, 215 80"/>
<path class="curve" d="M45 154 C101 146, 171 128, 215 106"/>
<path class="curve" d="M45 170 C101 164, 171 150, 215 128"/>
</g>
<text class="percentile" x="223" y="36">P97</text>
<text class="percentile" x="223" y="54">P75</text>
<text class="percentile" x="223" y="72">P50</text>
<text class="percentile" x="223" y="90">P25</text>
<text class="percentile" x="223" y="108">P3</text>
</svg>