<svg xmlns="http://www.w3.org/2000/svg" viewBox="0 0 260 188" role="img" aria-label="IAP Boys Height 5-18 years">
<style>
    .axis { stroke: #111; stroke-width: 1.8; fill: none; }
    .tick { stroke: #666; stroke-width: 1; }
    .label { fill: #222; font: 11px Arial, sans-serif; }
    .ylabel { fill: #222; font: 11px Arial, sans-serif; text-anchor: end; }
    .curve { fill: none; stroke: #8a8f96; stroke-width: 1.5; stroke-linecap: round; }
    .median { fill: none; stroke: #222; stroke-width: 2.1; stroke-linecap: round; }
    .percentile { fill: #444; font: 700 9px Arial, sans-serif; }
  </style>
<rect x="0" y="0" width="260" height="188" fill="#fff"/>
<path class="axis" d="M45 22 V162 H215"/>
<path class="tick" d="M45 162 V156"/>
<text class="label" x="35" y="178">5y</text>
<path class="tick" d="M87 162 V156"/>
<text class="label" x="77" y="178">8y</text>
<path class="tick" d="M130 162 V156"/>
<text class="label" x="120" y="178">11y</text>
<path class="tick" d="M173 162 V156"/>
<text class="label" x="163" y="178">14y</text>
<path class="tick" d="M215 162 V156"/>
<text class="label" x="205" y="178">18y</text>
<path class="tick" d="M45 22 H51"/>
<text class="ylabel" x="39" y="26">180</text>
<path class="tick" d="M45 69 H51"/>
<text class="ylabel" x="39" y="73">140</text>
<path class="tick" d="M45 115 H51"/>
<text class="ylabel" x="39" y="119">100</text>
<path class="tick" d="M45 162 H51"/>
<text class="ylabel" x="39" y="166">60</text>
<path class="curve" d="M45 140 C73 70, 133 26, 215 32"/>
<path class="curve" d="M45 146 C73 88, 133 46, 215 50"/>
<path class="median" d="M45 153 C73 104, 133 66, 215 66"/>
<path class="curve" d="M45 160 C73 120, 133 84, 215 80"/>
<text class="percentile" x="223" y="34">P97</text>
<text class="percentile" x="223" y="52">P75</text>
<text class="percentile" x="223" y="70">P50</text>
<text class="percentile" x="223" y="88">P25</text>
</svg>