<svg xmlns="http://www.w3.org/2000/svg" viewBox="0 0 260 188" role="img" aria-label="WHO Boys Weight-for-Height 0-5 years">
<style>
    .axis { stroke: #111; stroke-width: 1.8; fill: none; }
    .tick { stroke: #666; stroke-width: 1; }
    .label { fill: #222; font: 9.5px Arial, sans-serif; text-anchor: middle; }
    .ylabel { fill: #222; font: 9.5px Arial, sans-serif; text-anchor: end; }
    .curve { fill: none; stroke: #8a8f96; stroke-width: 1.5; stroke-linecap: round; }
    .median { fill: none; stroke: #222; stroke-width: 2.1; stroke-linecap: round; }
    .percentile { fill: #444; font: 700 8px Arial, sans-serif; }
  </style>
<rect x="0" y="0" width="260" height="188" fill="#fff"/>
<defs><clipPath id="clip-boys-weight-for-height-0-5-minimal-svg-0"><rect x="45" y="22" width="170" height="140"/></clipPath></defs>
<path class="axis" d="M45 22 V162 H215"/>
<path class="tick" d="M45 162 V156"/>
<text class="label" x="45" y="178">45</text>
<path class="tick" d="M79 162 V156"/>
<text class="label" x="79" y="178">60</text>
<path class="tick" d="M113 162 V156"/>
<text class="label" x="113" y="178">75</text>
<path class="tick" d="M147 162 V156"/>
<text class="label" x="147" y="178">90</text>
<path class="tick" d="M181 162 V156"/>
<text class="label" x="181" y="178">105</text>
<path class="tick" d="M215 162 V156"/>
<text class="label" x="215" y="178">110</text>
<path class="tick" d="M45 22 H51"/>
<text class="ylabel" x="39" y="26">28</text>
<path class="tick" d="M45 69 H51"/>
<text class="ylabel" x="39" y="73">20</text>
<path class="tick" d="M45 115 H51"/>
<text class="ylabel" x="39" y="119">12</text>
<path class="tick" d="M45 162 H51"/>
<text class="ylabel" x="39" y="166">4</text>
<g clip-path="url(#clip-boys-weight-for-height-0-5-minimal-svg-0)">
<path class="curve" d="M45 134 C93 40, 177 34, 215 44"/>
<path class="curve" d="M45 144 C93 58, 177 54, 215 60"/>
<path class="median" d="M45 153 C93 76, 177 72, 215 78"/>
<path class="curve" d="M45 161 C93 94, 177 90, 215 94"/>
</g>
<text class="percentile" x="223" y="36">P97</text>
<text class="percentile" x="223" y="54">P75</text>
<text class="percentile" x="223" y="72">P50</text>
<text class="percentile" x="223" y="90">P25</text>
</svg>