<svg xmlns="http://www.w3.org/2000/svg" viewBox="0 0 260 188" role="img" aria-label="IAP Boys Height 5-18 years">
<style>
    .axis { stroke: #111; stroke-width: 1; fill: none; }
    .tick { stroke: #666; stroke-width: 1; }
    .label { fill: #222; font: 9.5px Arial, sans-serif; text-anchor: middle; }
    .ylabel { fill: #222; font: 9.5px Arial, sans-serif; text-anchor: end; }
    .curve { fill: none; stroke: #8a8f96; stroke-width: 1; stroke-linecap: round; }
    .median { fill: none; stroke: #222; stroke-width: 1; stroke-linecap: round; }
    .percentile { fill: #444; font: 700 8px Arial, sans-serif; }
  </style>
<rect x="0" y="0" width="260" height="188" fill="#fff"/>
<defs><clipPath id="clip-boys-height-5-18-minimal-svg-0"><rect x="45" y="22" width="170" height="140"/></clipPath></defs>
<path class="axis" d="M45 22 V162 H215"/>
<path class="tick" d="M45 162 V156"/>
<text class="label" x="45" y="178">5y</text>
<path class="tick" d="M87 162 V156"/>
<text class="label" x="87" y="178">8y</text>
<path class="tick" d="M130 162 V156"/>
<text class="label" x="130" y="178">11y</text>
<path class="tick" d="M173 162 V156"/>
<text class="label" x="173" y="178">14y</text>
<path class="tick" d="M215 162 V156"/>
<text class="label" x="215" y="178">18y</text>
<path class="tick" d="M45 22 H51"/>
<text class="ylabel" x="39" y="26">185</text>
<path class="tick" d="M45 57 H51"/>
<text class="ylabel" x="39" y="61">160</text>
<path class="tick" d="M45 92 H51"/>
<text class="ylabel" x="39" y="96">135</text>
<path class="tick" d="M45 127 H51"/>
<text class="ylabel" x="39" y="131">110</text>
<path class="tick" d="M45 162 H51"/>
<text class="ylabel" x="39" y="166">85</text>
<g clip-path="url(#clip-boys-height-5-18-minimal-svg-0)">
<path class="curve" d="M45.00 116.13 L51.54 111.73 L58.08 107.33 L64.62 102.93 L71.15 98.53 L77.69 94.13 L84.23 89.87 L90.77 85.73 L97.31 81.60 L103.85 77.60 L110.38 73.47 L116.92 69.47 L123.46 65.33 L130.00 61.20 L136.54 57.07 L143.08 52.93 L149.62 48.80 L156.15 45.07 L162.69 41.47 L169.23 38.40 L175.77 35.73 L182.31 33.47 L188.85 31.73 L195.38 30.27 L201.92 28.93 L208.46 27.60 L215.00 26.40"/>
<path class="curve" d="M45.00 125.47 L51.54 121.47 L58.08 117.33 L64.62 113.20 L71.15 109.20 L77.69 105.20 L84.23 101.33 L90.77 97.47 L97.31 93.60 L103.85 89.87 L110.38 86.13 L116.92 82.40 L123.46 78.53 L130.00 74.67 L136.54 70.67 L143.08 66.67 L149.62 62.67 L156.15 58.80 L162.69 55.20 L169.23 51.87 L175.77 49.07 L182.31 46.53 L188.85 44.53 L195.38 42.67 L201.92 40.93 L208.46 39.33 L215.00 37.73"/>
<path class="median" d="M45.00 130.13 L51.54 126.13 L58.08 122.27 L64.62 118.27 L71.15 114.40 L77.69 110.67 L84.23 106.80 L90.77 103.20 L97.31 99.60 L103.85 96.00 L110.38 92.40 L116.92 88.80 L123.46 85.07 L130.00 81.33 L136.54 77.47 L143.08 73.47 L149.62 69.60 L156.15 65.73 L162.69 62.13 L169.23 58.93 L175.77 56.00 L182.31 53.33 L188.85 51.20 L195.38 49.20 L201.92 47.33 L208.46 45.60 L215.00 43.87"/>
<path class="curve" d="M45.00 134.53 L51.54 130.80 L58.08 127.07 L64.62 123.33 L71.15 119.60 L77.69 115.87 L84.23 112.27 L90.77 108.80 L97.31 105.33 L103.85 102.00 L110.38 98.53 L116.92 95.07 L123.46 91.60 L130.00 87.87 L136.54 84.27 L143.08 80.40 L149.62 76.67 L156.15 72.93 L162.69 69.33 L169.23 66.00 L175.77 63.07 L182.31 60.40 L188.85 58.13 L195.38 56.00 L201.92 54.13 L208.46 52.27 L215.00 50.40"/>
<path class="curve" d="M45.00 143.33 L51.54 139.87 L58.08 136.40 L64.62 132.93 L71.15 129.60 L77.69 126.27 L84.23 122.93 L90.77 119.73 L97.31 116.67 L103.85 113.60 L110.38 110.53 L116.92 107.47 L123.46 104.40 L130.00 101.07 L136.54 97.73 L143.08 94.40 L149.62 90.93 L156.15 87.47 L162.69 84.13 L169.23 80.93 L175.77 78.00 L182.31 75.33 L188.85 72.93 L195.38 70.80 L201.92 68.67 L208.46 66.53 L215.00 64.53"/>
</g>
<text class="percentile" x="223" y="36">P97</text>
<text class="percentile" x="223" y="54">P75</text>
<text class="percentile" x="223" y="72">P50</text>
<text class="percentile" x="223" y="90">P25</text>
<text class="percentile" x="223" y="108">P3</text>
</svg>