<svg xmlns="http://www.w3.org/2000/svg" viewBox="0 0 760 298" role="img" aria-label="Indian Boys Waist Circumference">
<style>
    .axis { stroke: #111; stroke-width: 1.8; fill: none; }
    .tick { stroke: #666; stroke-width: 1; }
    .label { fill: #222; font: 11px Arial, sans-serif; }
    .ylabel { fill: #222; font: 11px Arial, sans-serif; text-anchor: end; }
    .curve { fill: none; stroke: #8a8f96; stroke-width: 1.5; stroke-linecap: round; }
    .median { fill: none; stroke: #222; stroke-width: 2.1; stroke-linecap: round; }
    .percentile { fill: #444; font: 700 9px Arial, sans-serif; }
  </style>
<rect x="0" y="0" width="760" height="298" fill="#fff"/>
<path class="axis" d="M80 78 V258 H680"/>
<path class="tick" d="M80 258 V252"/>
<text class="label" x="70" y="274">5y</text>
<path class="tick" d="M230 258 V252"/>
<text class="label" x="220" y="274">8y</text>
<path class="tick" d="M380 258 V252"/>
<text class="label" x="370" y="274">11y</text>
<path class="tick" d="M530 258 V252"/>
<text class="label" x="520" y="274">14y</text>
<path class="tick" d="M680 258 V252"/>
<text class="label" x="670" y="274">18y</text>
<path class="tick" d="M80 78 H86"/>
<text class="ylabel" x="74" y="82">95</text>
<path class="tick" d="M80 138 H86"/>
<text class="ylabel" x="74" y="142">80</text>
<path class="tick" d="M80 198 H86"/>
<text class="ylabel" x="74" y="202">65</text>
<path class="tick" d="M80 258 H86"/>
<text class="ylabel" x="74" y="262">50</text>
<path class="curve" d="M80 222 C128 170, 202 146, 680 100"/>
<path class="curve" d="M80 234 C128 188, 202 166, 680 120"/>
<path class="median" d="M80 246 C128 206, 202 186, 680 140"/>
<path class="curve" d="M80 256 C128 220, 202 202, 680 158"/>
<text class="percentile" x="688" y="90">P95</text>
<text class="percentile" x="688" y="108">P75</text>
<text class="percentile" x="688" y="126">P50</text>
<text class="percentile" x="688" y="144">P10</text>
</svg>