<svg xmlns="http://www.w3.org/2000/svg" viewBox="0 0 760 298" role="img" aria-label="WHO Boys Head Circumference 0-5 years">
<style>
    .axis { stroke: #111; stroke-width: 1.8; fill: none; }
    .tick { stroke: #666; stroke-width: 1; }
    .label { fill: #222; font: 11px Arial, sans-serif; }
    .ylabel { fill: #222; font: 11px Arial, sans-serif; text-anchor: end; }
    .curve { fill: none; stroke: #8a8f96; stroke-width: 1.5; stroke-linecap: round; }
    .median { fill: none; stroke: #222; stroke-width: 2.1; stroke-linecap: round; }
    .percentile { fill: #444; font: 700 9px Arial, sans-serif; }
  </style>
<rect x="0" y="0" width="760" height="298" fill="#fff"/>
<path class="axis" d="M80 78 V258 H680"/>
<path class="tick" d="M80 258 V252"/>
<text class="label" x="70" y="274">0m</text>
<path class="tick" d="M200 258 V252"/>
<text class="label" x="190" y="274">12m</text>
<path class="tick" d="M320 258 V252"/>
<text class="label" x="310" y="274">24m</text>
<path class="tick" d="M440 258 V252"/>
<text class="label" x="430" y="274">36m</text>
<path class="tick" d="M560 258 V252"/>
<text class="label" x="550" y="274">48m</text>
<path class="tick" d="M680 258 V252"/>
<text class="label" x="670" y="274">60m</text>
<path class="tick" d="M80 78 H86"/>
<text class="ylabel" x="74" y="82">57</text>
<path class="tick" d="M80 138 H86"/>
<text class="ylabel" x="74" y="142">53</text>
<path class="tick" d="M80 198 H86"/>
<text class="ylabel" x="74" y="202">49</text>
<path class="tick" d="M80 258 H86"/>
<text class="ylabel" x="74" y="262">45</text>
<path class="curve" d="M80 222 C112 196, 170 182, 680 102"/>
<path class="curve" d="M80 230 C112 206, 170 193, 680 115"/>
<path class="median" d="M80 238 C112 216, 170 204, 680 128"/>
<path class="curve" d="M80 246 C112 224, 170 214, 680 141"/>
<text class="percentile" x="688" y="90">P97</text>
<text class="percentile" x="688" y="108">P75</text>
<text class="percentile" x="688" y="126">P50</text>
<text class="percentile" x="688" y="144">P25</text>
</svg>