<svg xmlns="http://www.w3.org/2000/svg" viewBox="0 0 260 188" role="img" aria-label="IAP Girls Height 5-18 years">
<style>
    .axis { stroke: #111; stroke-width: 1.8; fill: none; }
    .tick { stroke: #666; stroke-width: 1; }
    .label { fill: #222; font: 9.5px Arial, sans-serif; text-anchor: middle; }
    .ylabel { fill: #222; font: 9.5px Arial, sans-serif; text-anchor: end; }
    .curve { fill: none; stroke: #8a8f96; stroke-width: 1.5; stroke-linecap: round; }
    .median { fill: none; stroke: #222; stroke-width: 2.1; stroke-linecap: round; }
    .percentile { fill: #444; font: 700 8px Arial, sans-serif; }
  </style>
<rect x="0" y="0" width="260" height="188" fill="#fff"/>
<defs><clipPath id="clip-girls-height-5-18-minimal-svg-0"><rect x="45" y="22" width="170" height="140"/></clipPath></defs>
<path class="axis" d="M45 22 V162 H215"/>
<path class="tick" d="M45 162 V156"/>
<text class="label" x="45" y="178">5y</text>
<path class="tick" d="M87 162 V156"/>
<text class="label" x="87" y="178">8y</text>
<path class="tick" d="M130 162 V156"/>
<text class="label" x="130" y="178">11y</text>
<path class="tick" d="M173 162 V156"/>
<text class="label" x="173" y="178">14y</text>
<path class="tick" d="M215 162 V156"/>
<text class="label" x="215" y="178">18y</text>
<path class="tick" d="M45 22 H51"/>
<text class="ylabel" x="39" y="26">180</text>
<path class="tick" d="M45 57 H51"/>
<text class="ylabel" x="39" y="61">155</text>
<path class="tick" d="M45 92 H51"/>
<text class="ylabel" x="39" y="96">130</text>
<path class="tick" d="M45 127 H51"/>
<text class="ylabel" x="39" y="131">105</text>
<path class="tick" d="M45 162 H51"/>
<text class="ylabel" x="39" y="166">80</text>
<g clip-path="url(#clip-girls-height-5-18-minimal-svg-0)">
<path class="curve" d="M45.00 106.98 L51.54 102.50 L58.08 98.16 L64.62 93.82 L71.15 89.34 L77.69 85.00 L84.23 80.66 L90.77 76.18 L97.31 71.70 L103.85 67.36 L110.38 62.88 L116.92 58.54 L123.46 54.48 L130.00 50.56 L136.54 47.20 L143.08 44.26 L149.62 41.74 L156.15 39.92 L162.69 38.52 L169.23 37.40 L175.77 36.70 L182.31 36.28 L188.85 35.86 L195.38 35.72 L201.92 35.44 L208.46 35.30 L215.00 35.16"/>
<path class="curve" d="M45.00 118.18 L51.54 113.84 L58.08 109.64 L64.62 105.30 L71.15 101.10 L77.69 96.76 L84.23 92.56 L90.77 88.22 L97.31 83.88 L103.85 79.54 L110.38 75.20 L116.92 71.00 L123.46 66.94 L130.00 63.16 L136.54 59.80 L143.08 56.86 L149.62 54.48 L156.15 52.52 L162.69 51.12 L169.23 50.00 L175.77 49.30 L182.31 48.74 L188.85 48.32 L195.38 48.04 L201.92 47.76 L208.46 47.62 L215.00 47.34"/>
<path class="median" d="M45.00 123.50 L51.54 119.30 L58.08 115.10 L64.62 110.90 L71.15 106.84 L77.69 102.64 L84.23 98.44 L90.77 94.24 L97.31 90.04 L103.85 85.84 L110.38 81.64 L116.92 77.44 L123.46 73.38 L130.00 69.74 L136.54 66.24 L143.08 63.30 L149.62 60.92 L156.15 58.96 L162.69 57.42 L169.23 56.30 L175.77 55.46 L182.31 54.76 L188.85 54.34 L195.38 53.92 L201.92 53.64 L208.46 53.36 L215.00 53.08"/>
<path class="curve" d="M45.00 128.54 L51.54 124.48 L58.08 120.42 L64.62 116.50 L71.15 112.44 L77.69 108.52 L84.23 104.46 L90.77 100.40 L97.31 96.34 L103.85 92.14 L110.38 88.08 L116.92 84.02 L123.46 79.96 L130.00 76.32 L136.54 72.82 L143.08 69.88 L149.62 67.36 L156.15 65.26 L162.69 63.72 L169.23 62.46 L175.77 61.48 L182.31 60.78 L188.85 60.22 L195.38 59.66 L201.92 59.24 L208.46 58.96 L215.00 58.54"/>
<path class="curve" d="M45.00 137.92 L51.54 134.28 L58.08 130.78 L64.62 127.14 L71.15 123.64 L77.69 120.00 L84.23 116.36 L90.77 112.72 L97.31 109.08 L103.85 105.30 L110.38 101.38 L116.92 97.46 L123.46 93.68 L130.00 89.90 L136.54 86.40 L143.08 83.18 L149.62 80.52 L156.15 78.14 L162.69 76.18 L169.23 74.64 L175.77 73.38 L182.31 72.26 L188.85 71.42 L195.38 70.72 L201.92 70.02 L208.46 69.32 L215.00 68.76"/>
</g>
<text class="percentile" x="223" y="36">P97</text>
<text class="percentile" x="223" y="54">P75</text>
<text class="percentile" x="223" y="72">P50</text>
<text class="percentile" x="223" y="90">P25</text>
<text class="percentile" x="223" y="108">P3</text>
</svg>