<svg xmlns="http://www.w3.org/2000/svg" viewBox="0 0 260 188" role="img" aria-label="WHO Girls Weight 0-5 years">
<style>
    .axis { stroke: #111; stroke-width: 1.8; fill: none; }
    .tick { stroke: #666; stroke-width: 1; }
    .label { fill: #222; font: 9.5px Arial, sans-serif; text-anchor: middle; }
    .ylabel { fill: #222; font: 9.5px Arial, sans-serif; text-anchor: end; }
    .curve { fill: none; stroke: #8a8f96; stroke-width: 1.5; stroke-linecap: round; }
    .median { fill: none; stroke: #222; stroke-width: 2.1; stroke-linecap: round; }
    .percentile { fill: #444; font: 700 8px Arial, sans-serif; }
  </style>
<rect x="0" y="0" width="260" height="188" fill="#fff"/>
<defs><clipPath id="clip-girls-weight-0-5-minimal-svg-0"><rect x="45" y="22" width="170" height="140"/></clipPath></defs>
<path class="axis" d="M45 22 V162 H215"/>
<path class="tick" d="M45 162 V156"/>
<text class="label" x="45" y="178">0y</text>
<path class="tick" d="M79 162 V156"/>
<text class="label" x="79" y="178">1y</text>
<path class="tick" d="M113 162 V156"/>
<text class="label" x="113" y="178">2y</text>
<path class="tick" d="M147 162 V156"/>
<text class="label" x="147" y="178">3y</text>
<path class="tick" d="M181 162 V156"/>
<text class="label" x="181" y="178">4y</text>
<path class="tick" d="M215 162 V156"/>
<text class="label" x="215" y="178">5y</text>
<path class="tick" d="M45 22 H51"/>
<text class="ylabel" x="39" y="26">25</text>
<path class="tick" d="M45 50 H51"/>
<text class="ylabel" x="39" y="54">20</text>
<path class="tick" d="M45 78 H51"/>
<text class="ylabel" x="39" y="82">15</text>
<path class="tick" d="M45 106 H51"/>
<text class="ylabel" x="39" y="110">10</text>
<path class="tick" d="M45 134 H51"/>
<text class="ylabel" x="39" y="138">5</text>
<path class="tick" d="M45 162 H51"/>
<text class="ylabel" x="39" y="166">0</text>
<g clip-path="url(#clip-girls-weight-0-5-minimal-svg-0)">
<path class="curve" d="M45 136 C79 58, 137 30, 215 38"/>
<path class="curve" d="M45 144 C79 74, 137 48, 215 56"/>
<path class="median" d="M45 152 C79 90, 137 64, 215 74"/>
<path class="curve" d="M45 161 C79 104, 137 80, 215 90"/>
</g>
<text class="percentile" x="223" y="36">P97</text>
<text class="percentile" x="223" y="54">P75</text>
<text class="percentile" x="223" y="72">P50</text>
<text class="percentile" x="223" y="90">P25</text>
</svg>