<svg xmlns="http://www.w3.org/2000/svg" viewBox="0 0 760 298" role="img" aria-label="WHO Girls Weight 0-5 years">
<style>
    .axis { stroke: #111; stroke-width: 1.8; fill: none; }
    .tick { stroke: #666; stroke-width: 1; }
    .label { fill: #222; font: 11px Arial, sans-serif; }
    .ylabel { fill: #222; font: 11px Arial, sans-serif; text-anchor: end; }
    .curve { fill: none; stroke: #8a8f96; stroke-width: 1.5; stroke-linecap: round; }
    .median { fill: none; stroke: #222; stroke-width: 2.1; stroke-linecap: round; }
    .percentile { fill: #444; font: 700 9px Arial, sans-serif; }
  </style>
<rect x="0" y="0" width="760" height="298" fill="#fff"/>
<path class="axis" d="M80 78 V258 H680"/>
<path class="tick" d="M80 258 V252"/>
<text class="label" x="70" y="274">0m</text>
<path class="tick" d="M200 258 V252"/>
<text class="label" x="190" y="274">12m</text>
<path class="tick" d="M320 258 V252"/>
<text class="label" x="310" y="274">24m</text>
<path class="tick" d="M440 258 V252"/>
<text class="label" x="430" y="274">36m</text>
<path class="tick" d="M560 258 V252"/>
<text class="label" x="550" y="274">48m</text>
<path class="tick" d="M680 258 V252"/>
<text class="label" x="670" y="274">60m</text>
<path class="tick" d="M80 78 H86"/>
<text class="ylabel" x="74" y="82">75</text>
<path class="tick" d="M80 138 H86"/>
<text class="ylabel" x="74" y="142">50</text>
<path class="tick" d="M80 198 H86"/>
<text class="ylabel" x="74" y="202">25</text>
<path class="tick" d="M80 258 H86"/>
<text class="ylabel" x="74" y="262">5</text>
<path class="curve" d="M80 232 C114 154, 172 126, 680 94"/>
<path class="curve" d="M80 240 C114 170, 172 144, 680 112"/>
<path class="median" d="M80 248 C114 186, 172 160, 680 130"/>
<path class="curve" d="M80 257 C114 200, 172 176, 680 146"/>
<text class="percentile" x="688" y="90">P97</text>
<text class="percentile" x="688" y="108">P75</text>
<text class="percentile" x="688" y="126">P50</text>
<text class="percentile" x="688" y="144">P25</text>
</svg>