<svg xmlns="http://www.w3.org/2000/svg" viewBox="0 0 760 298" role="img" aria-label="WHO Girls Height / Weight / Head 0-5 years">
<style>
    .axis { stroke: #111; stroke-width: 1.8; fill: none; }
    .tick { stroke: #666; stroke-width: 1; }
    .label { fill: #222; font: 11px Arial, sans-serif; }
    .ylabel { fill: #222; font: 11px Arial, sans-serif; text-anchor: end; }
    .curve { fill: none; stroke: #8a8f96; stroke-width: 1.5; stroke-linecap: round; }
    .median { fill: none; stroke: #222; stroke-width: 2.1; stroke-linecap: round; }
    .percentile { fill: #444; font: 700 9px Arial, sans-serif; }
  </style>
<rect x="0" y="0" width="760" height="298" fill="#fff"/>
<path class="axis" d="M12 78 V258 H232"/>
<path class="tick" d="M12 258 V252"/>
<text class="label" x="2" y="274">0m</text>
<path class="tick" d="M56 258 V252"/>
<text class="label" x="46" y="274">12m</text>
<path class="tick" d="M100 258 V252"/>
<text class="label" x="90" y="274">24m</text>
<path class="tick" d="M144 258 V252"/>
<text class="label" x="134" y="274">36m</text>
<path class="tick" d="M188 258 V252"/>
<text class="label" x="178" y="274">48m</text>
<path class="tick" d="M232 258 V252"/>
<text class="label" x="222" y="274">60m</text>
<path class="tick" d="M12 78 H18"/>
<text class="ylabel" x="6" y="82">180</text>
<path class="tick" d="M12 138 H18"/>
<text class="ylabel" x="6" y="142">140</text>
<path class="tick" d="M12 198 H18"/>
<text class="ylabel" x="6" y="202">100</text>
<path class="tick" d="M12 258 H18"/>
<text class="ylabel" x="6" y="262">60</text>
<path class="curve" d="M12 236 C40 166, 100 122, 232 88"/>
<path class="curve" d="M12 242 C40 184, 100 142, 232 106"/>
<path class="median" d="M12 249 C40 200, 100 162, 232 122"/>
<path class="curve" d="M12 256 C40 216, 100 180, 232 136"/>
<text class="percentile" x="240" y="90">P97</text>
<text class="percentile" x="240" y="108">P75</text>
<text class="percentile" x="240" y="126">P50</text>
<text class="percentile" x="240" y="144">P25</text>
<path class="axis" d="M270 78 V258 H490"/>
<path class="tick" d="M270 258 V252"/>
<text class="label" x="260" y="274">0m</text>
<path class="tick" d="M314 258 V252"/>
<text class="label" x="304" y="274">12m</text>
<path class="tick" d="M358 258 V252"/>
<text class="label" x="348" y="274">24m</text>
<path class="tick" d="M402 258 V252"/>
<text class="label" x="392" y="274">36m</text>
<path class="tick" d="M446 258 V252"/>
<text class="label" x="436" y="274">48m</text>
<path class="tick" d="M490 258 V252"/>
<text class="label" x="480" y="274">60m</text>
<path class="tick" d="M270 78 H276"/>
<text class="ylabel" x="264" y="82">75</text>
<path class="tick" d="M270 138 H276"/>
<text class="ylabel" x="264" y="142">50</text>
<path class="tick" d="M270 198 H276"/>
<text class="ylabel" x="264" y="202">25</text>
<path class="tick" d="M270 258 H276"/>
<text class="ylabel" x="264" y="262">5</text>
<path class="curve" d="M270 232 C304 154, 362 126, 490 94"/>
<path class="curve" d="M270 240 C304 170, 362 144, 490 112"/>
<path class="median" d="M270 248 C304 186, 362 160, 490 130"/>
<path class="curve" d="M270 257 C304 200, 362 176, 490 146"/>
<text class="percentile" x="498" y="90">P97</text>
<text class="percentile" x="498" y="108">P75</text>
<text class="percentile" x="498" y="126">P50</text>
<text class="percentile" x="498" y="144">P25</text>
<path class="axis" d="M528 78 V258 H748"/>
<path class="tick" d="M528 258 V252"/>
<text class="label" x="518" y="274">0m</text>
<path class="tick" d="M572 258 V252"/>
<text class="label" x="562" y="274">12m</text>
<path class="tick" d="M616 258 V252"/>
<text class="label" x="606" y="274">24m</text>
<path class="tick" d="M660 258 V252"/>
<text class="label" x="650" y="274">36m</text>
<path class="tick" d="M704 258 V252"/>
<text class="label" x="694" y="274">48m</text>
<path class="tick" d="M748 258 V252"/>
<text class="label" x="738" y="274">60m</text>
<path class="tick" d="M528 78 H534"/>
<text class="ylabel" x="522" y="82">57</text>
<path class="tick" d="M528 138 H534"/>
<text class="ylabel" x="522" y="142">53</text>
<path class="tick" d="M528 198 H534"/>
<text class="ylabel" x="522" y="202">49</text>
<path class="tick" d="M528 258 H534"/>
<text class="ylabel" x="522" y="262">45</text>
<path class="curve" d="M528 222 C560 196, 618 182, 748 102"/>
<path class="curve" d="M528 230 C560 206, 618 193, 748 115"/>
<path class="median" d="M528 238 C560 216, 618 204, 748 128"/>
<path class="curve" d="M528 246 C560 224, 618 214, 748 141"/>
<text class="percentile" x="756" y="90">P97</text>
<text class="percentile" x="756" y="108">P75</text>
<text class="percentile" x="756" y="126">P50</text>
<text class="percentile" x="756" y="144">P25</text>
</svg>