<svg xmlns="http://www.w3.org/2000/svg" viewBox="0 0 260 188" role="img" aria-label="IAP Girls Weight 5-18 years">
<style>
    .axis { stroke: #111; stroke-width: 1.8; fill: none; }
    .tick { stroke: #666; stroke-width: 1; }
    .label { fill: #222; font: 9.5px Arial, sans-serif; text-anchor: middle; }
    .ylabel { fill: #222; font: 9.5px Arial, sans-serif; text-anchor: end; }
    .curve { fill: none; stroke: #8a8f96; stroke-width: 1.5; stroke-linecap: round; }
    .median { fill: none; stroke: #222; stroke-width: 2.1; stroke-linecap: round; }
    .percentile { fill: #444; font: 700 8px Arial, sans-serif; }
  </style>
<rect x="0" y="0" width="260" height="188" fill="#fff"/>
<defs><clipPath id="clip-girls-weight-5-18-minimal-svg-0"><rect x="45" y="22" width="170" height="140"/></clipPath></defs>
<path class="axis" d="M45 22 V162 H215"/>
<path class="tick" d="M45 162 V156"/>
<text class="label" x="45" y="178">5y</text>
<path class="tick" d="M87 162 V156"/>
<text class="label" x="87" y="178">8y</text>
<path class="tick" d="M130 162 V156"/>
<text class="label" x="130" y="178">11y</text>
<path class="tick" d="M173 162 V156"/>
<text class="label" x="173" y="178">14y</text>
<path class="tick" d="M215 162 V156"/>
<text class="label" x="215" y="178">18y</text>
<path class="tick" d="M45 22 H51"/>
<text class="ylabel" x="39" y="26">75</text>
<path class="tick" d="M45 69 H51"/>
<text class="ylabel" x="39" y="73">50</text>
<path class="tick" d="M45 115 H51"/>
<text class="ylabel" x="39" y="119">25</text>
<path class="tick" d="M45 162 H51"/>
<text class="ylabel" x="39" y="166">0</text>
<g clip-path="url(#clip-girls-weight-5-18-minimal-svg-0)">
<path class="curve" d="M45.00 115.33 L51.54 111.60 L58.08 107.68 L64.62 103.76 L71.15 99.65 L77.69 95.36 L84.23 90.88 L90.77 86.03 L97.31 80.99 L103.85 75.57 L110.38 69.79 L116.92 63.81 L123.46 57.65 L130.00 51.68 L136.54 46.08 L143.08 41.04 L149.62 36.75 L156.15 33.20 L162.69 30.59 L169.23 28.72 L175.77 27.41 L182.31 26.67 L188.85 26.11 L195.38 25.55 L201.92 25.17 L208.46 24.99 L215.00 24.80"/>
<path class="curve" d="M45.00 127.47 L51.54 124.85 L58.08 122.24 L64.62 119.63 L71.15 116.83 L77.69 113.65 L84.23 110.48 L90.77 106.93 L97.31 103.20 L103.85 99.28 L110.38 94.80 L116.92 90.32 L123.46 85.47 L130.00 80.61 L136.54 76.13 L143.08 72.03 L149.62 68.29 L156.15 65.31 L162.69 62.69 L169.23 60.64 L175.77 59.15 L182.31 57.84 L188.85 56.91 L195.38 55.79 L201.92 55.04 L208.46 54.11 L215.00 53.36"/>
<path class="median" d="M45.00 131.39 L51.54 129.15 L58.08 127.09 L64.62 124.85 L71.15 122.43 L77.69 120.00 L84.23 117.20 L90.77 114.40 L97.31 111.23 L103.85 107.87 L110.38 104.13 L116.92 100.03 L123.46 95.92 L130.00 91.81 L136.54 87.71 L143.08 83.97 L149.62 80.61 L156.15 77.81 L162.69 75.39 L169.23 73.33 L175.77 71.65 L182.31 70.35 L188.85 69.23 L195.38 68.11 L201.92 66.99 L208.46 65.87 L215.00 64.93"/>
<path class="curve" d="M45.00 134.37 L51.54 132.69 L58.08 130.83 L64.62 128.96 L71.15 127.09 L77.69 124.85 L84.23 122.61 L90.77 120.37 L97.31 117.76 L103.85 114.77 L110.38 111.79 L116.92 108.24 L123.46 104.69 L130.00 101.15 L136.54 97.60 L143.08 94.24 L149.62 91.25 L156.15 88.45 L162.69 86.21 L169.23 84.16 L175.77 82.67 L182.31 81.17 L188.85 79.87 L195.38 78.56 L201.92 77.44 L208.46 76.13 L215.00 75.01"/>
<path class="curve" d="M45.00 139.04 L51.54 137.73 L58.08 136.43 L64.62 135.12 L71.15 133.81 L77.69 132.32 L84.23 130.83 L90.77 129.33 L97.31 127.47 L103.85 125.60 L110.38 123.36 L116.92 120.93 L123.46 118.51 L130.00 115.71 L136.54 113.09 L143.08 110.48 L149.62 108.05 L156.15 105.63 L162.69 103.57 L169.23 101.71 L175.77 100.21 L182.31 98.53 L188.85 97.23 L195.38 95.73 L201.92 94.43 L208.46 93.12 L215.00 91.81"/>
</g>
<text class="percentile" x="223" y="36">P97</text>
<text class="percentile" x="223" y="54">P75</text>
<text class="percentile" x="223" y="72">P50</text>
<text class="percentile" x="223" y="90">P25</text>
<text class="percentile" x="223" y="108">P3</text>
</svg>