<svg xmlns="http://www.w3.org/2000/svg" viewBox="0 0 260 188" role="img" aria-label="WHO Girls Head Circumference 0-5 years">
<style>
    .axis { stroke: #111; stroke-width: 1.8; fill: none; }
    .tick { stroke: #666; stroke-width: 1; }
    .label { fill: #222; font: 9.5px Arial, sans-serif; text-anchor: middle; }
    .ylabel { fill: #222; font: 9.5px Arial, sans-serif; text-anchor: end; }
    .curve { fill: none; stroke: #8a8f96; stroke-width: 1.5; stroke-linecap: round; }
    .median { fill: none; stroke: #222; stroke-width: 2.1; stroke-linecap: round; }
    .percentile { fill: #444; font: 700 8px Arial, sans-serif; }
  </style>
<rect x="0" y="0" width="260" height="188" fill="#fff"/>
<defs><clipPath id="clip-girls-head-0-5-minimal-svg-0"><rect x="45" y="22" width="170" height="140"/></clipPath></defs>
<path class="axis" d="M45 22 V162 H215"/>
<path class="tick" d="M45 162 V156"/>
<text class="label" x="45" y="178">0y</text>
<path class="tick" d="M79 162 V156"/>
<text class="label" x="79" y="178">1y</text>
<path class="tick" d="M113 162 V156"/>
<text class="label" x="113" y="178">2y</text>
<path class="tick" d="M147 162 V156"/>
<text class="label" x="147" y="178">3y</text>
<path class="tick" d="M181 162 V156"/>
<text class="label" x="181" y="178">4y</text>
<path class="tick" d="M215 162 V156"/>
<text class="label" x="215" y="178">5y</text>
<path class="tick" d="M45 22 H51"/>
<text class="ylabel" x="39" y="26">55</text>
<path class="tick" d="M45 57 H51"/>
<text class="ylabel" x="39" y="61">50</text>
<path class="tick" d="M45 92 H51"/>
<text class="ylabel" x="39" y="96">45</text>
<path class="tick" d="M45 127 H51"/>
<text class="ylabel" x="39" y="131">40</text>
<path class="tick" d="M45 162 H51"/>
<text class="ylabel" x="39" y="166">35</text>
<g clip-path="url(#clip-girls-head-0-5-minimal-svg-0)">
<path class="curve" d="M45 126 C77 100, 135 86, 215 46"/>
<path class="curve" d="M45 134 C77 110, 135 97, 215 59"/>
<path class="median" d="M45 142 C77 120, 135 108, 215 72"/>
<path class="curve" d="M45 150 C77 128, 135 118, 215 85"/>
</g>
<text class="percentile" x="223" y="36">P97</text>
<text class="percentile" x="223" y="54">P75</text>
<text class="percentile" x="223" y="72">P50</text>
<text class="percentile" x="223" y="90">P25</text>
</svg>