<svg xmlns="http://www.w3.org/2000/svg" viewBox="0 0 260 188" role="img" aria-label="WHO Boys Weight 0-5 years">
<style>
    .axis { stroke: #111; stroke-width: 1; fill: none; }
    .tick { stroke: #666; stroke-width: 1; }
    .label { fill: #222; font: 9.5px Arial, sans-serif; text-anchor: middle; }
    .ylabel { fill: #222; font: 9.5px Arial, sans-serif; text-anchor: end; }
    .curve { fill: none; stroke: #8a8f96; stroke-width: 1; stroke-linecap: round; }
    .median { fill: none; stroke: #222; stroke-width: 1; stroke-linecap: round; }
    .percentile { fill: #444; font: 700 8px Arial, sans-serif; }
  </style>
<rect x="0" y="0" width="260" height="188" fill="#fff"/>
<defs><clipPath id="clip-boys-weight-0-5-minimal-svg-0"><rect x="45" y="22" width="170" height="140"/></clipPath></defs>
<path class="axis" d="M45 22 V162 H215"/>
<path class="tick" d="M45 162 V156"/>
<text class="label" x="45" y="178">0y</text>
<path class="tick" d="M79 162 V156"/>
<text class="label" x="79" y="178">1y</text>
<path class="tick" d="M113 162 V156"/>
<text class="label" x="113" y="178">2y</text>
<path class="tick" d="M147 162 V156"/>
<text class="label" x="147" y="178">3y</text>
<path class="tick" d="M181 162 V156"/>
<text class="label" x="181" y="178">4y</text>
<path class="tick" d="M215 162 V156"/>
<text class="label" x="215" y="178">5y</text>
<path class="tick" d="M45 22 H51"/>
<text class="ylabel" x="39" y="26">25</text>
<path class="tick" d="M45 50 H51"/>
<text class="ylabel" x="39" y="54">20</text>
<path class="tick" d="M45 78 H51"/>
<text class="ylabel" x="39" y="82">15</text>
<path class="tick" d="M45 106 H51"/>
<text class="ylabel" x="39" y="110">10</text>
<path class="tick" d="M45 134 H51"/>
<text class="ylabel" x="39" y="138">5</text>
<path class="tick" d="M45 162 H51"/>
<text class="ylabel" x="39" y="166">0</text>
<g clip-path="url(#clip-boys-weight-0-5-minimal-svg-0)">
<path class="curve" d="M45.00 138.76 L53.50 118.99 L62.00 109.42 L70.50 102.98 L79.00 98.44 L87.50 93.90 L96.00 89.98 L104.50 86.01 L113.00 81.58 L130.00 74.14 L147.00 67.36 L164.00 60.75 L181.00 54.09 L198.00 47.31 L215.00 40.54"/>
<path class="curve" d="M45.00 140.89 L53.50 122.24 L62.00 113.17 L70.50 107.12 L79.00 102.86 L87.50 98.55 L96.00 94.91 L104.50 91.22 L113.00 87.02 L130.00 80.13 L147.00 73.91 L164.00 67.75 L181.00 61.54 L198.00 55.32 L215.00 49.10"/>
<path class="median" d="M45.00 143.52 L53.50 126.16 L62.00 117.76 L70.50 112.16 L79.00 108.24 L87.50 104.32 L96.00 100.96 L104.50 97.60 L113.00 93.68 L130.00 87.52 L147.00 81.92 L164.00 76.32 L181.00 70.72 L198.00 65.12 L215.00 59.52"/>
<path class="curve" d="M45.00 146.15 L53.50 130.08 L62.00 122.35 L70.50 117.20 L79.00 113.62 L87.50 110.09 L96.00 107.01 L104.50 103.98 L113.00 100.34 L130.00 94.91 L147.00 89.93 L164.00 84.89 L181.00 79.90 L198.00 74.92 L215.00 69.94"/>
<path class="curve" d="M45.00 148.28 L53.50 133.33 L62.00 126.10 L70.50 121.34 L79.00 118.04 L87.50 114.74 L96.00 111.94 L104.50 109.19 L113.00 105.78 L130.00 100.90 L147.00 96.48 L164.00 91.89 L181.00 87.35 L198.00 82.93 L215.00 78.50"/>
</g>
<text class="percentile" x="223" y="36">P97</text>
<text class="percentile" x="223" y="54">P85</text>
<text class="percentile" x="223" y="72">P50</text>
<text class="percentile" x="223" y="90">P15</text>
<text class="percentile" x="223" y="108">P3</text>
</svg>