<svg xmlns="http://www.w3.org/2000/svg" viewBox="0 0 260 188" role="img" aria-label="WHO Boys Head Circumference 0-5 years">
<style>
    .axis { stroke: #111; stroke-width: 1; fill: none; }
    .tick { stroke: #666; stroke-width: 1; }
    .label { fill: #222; font: 9.5px Arial, sans-serif; text-anchor: middle; }
    .ylabel { fill: #222; font: 9.5px Arial, sans-serif; text-anchor: end; }
    .curve { fill: none; stroke: #8a8f96; stroke-width: 1; stroke-linecap: round; }
    .median { fill: none; stroke: #222; stroke-width: 1; stroke-linecap: round; }
    .percentile { fill: #444; font: 700 8px Arial, sans-serif; }
  </style>
<rect x="0" y="0" width="260" height="188" fill="#fff"/>
<defs><clipPath id="clip-boys-head-0-5-minimal-svg-0"><rect x="45" y="22" width="170" height="140"/></clipPath></defs>
<path class="axis" d="M45 22 V162 H215"/>
<path class="tick" d="M45 162 V156"/>
<text class="label" x="45" y="178">0y</text>
<path class="tick" d="M79 162 V156"/>
<text class="label" x="79" y="178">1y</text>
<path class="tick" d="M113 162 V156"/>
<text class="label" x="113" y="178">2y</text>
<path class="tick" d="M147 162 V156"/>
<text class="label" x="147" y="178">3y</text>
<path class="tick" d="M181 162 V156"/>
<text class="label" x="181" y="178">4y</text>
<path class="tick" d="M215 162 V156"/>
<text class="label" x="215" y="178">5y</text>
<path class="tick" d="M45 22 H51"/>
<text class="ylabel" x="39" y="26">55</text>
<path class="tick" d="M45 50 H51"/>
<text class="ylabel" x="39" y="54">50</text>
<path class="tick" d="M45 78 H51"/>
<text class="ylabel" x="39" y="82">45</text>
<path class="tick" d="M45 106 H51"/>
<text class="ylabel" x="39" y="110">40</text>
<path class="tick" d="M45 134 H51"/>
<text class="ylabel" x="39" y="138">35</text>
<path class="tick" d="M45 162 H51"/>
<text class="ylabel" x="39" y="166">30</text>
<g clip-path="url(#clip-boys-head-0-5-minimal-svg-0)">
<path class="curve" d="M45.00 123.08 L53.50 89.48 L62.00 73.80 L70.50 64.28 L79.00 58.12 L87.50 52.63 L96.00 49.83 L104.50 47.03 L113.00 44.79 L130.00 41.99 L147.00 38.13 L164.00 36.45 L181.00 34.77 L198.00 33.65 L215.00 32.53"/>
<path class="curve" d="M45.00 129.24 L53.50 95.64 L62.00 79.96 L70.50 70.44 L79.00 64.28 L87.50 59.24 L96.00 56.44 L104.50 53.64 L113.00 51.40 L130.00 48.60 L147.00 45.24 L164.00 43.56 L181.00 41.88 L198.00 40.76 L215.00 39.64"/>
<path class="median" d="M45.00 136.80 L53.50 103.20 L62.00 87.52 L70.50 78.00 L79.00 71.84 L87.50 67.36 L96.00 64.56 L104.50 61.76 L113.00 59.52 L130.00 56.72 L147.00 53.92 L164.00 52.24 L181.00 50.56 L198.00 49.44 L215.00 48.32"/>
<path class="curve" d="M45.00 144.36 L53.50 110.76 L62.00 95.08 L70.50 85.56 L79.00 79.40 L87.50 75.48 L96.00 72.68 L104.50 69.88 L113.00 67.64 L130.00 64.84 L147.00 62.60 L164.00 60.92 L181.00 59.24 L198.00 58.12 L215.00 57.00"/>
<path class="curve" d="M45.00 150.52 L53.50 116.92 L62.00 101.24 L70.50 91.72 L79.00 85.56 L87.50 82.09 L96.00 79.29 L104.50 76.49 L113.00 74.25 L130.00 71.45 L147.00 69.71 L164.00 68.03 L181.00 66.35 L198.00 65.23 L215.00 64.11"/>
</g>
<text class="percentile" x="223" y="36">P97</text>
<text class="percentile" x="223" y="54">P85</text>
<text class="percentile" x="223" y="72">P50</text>
<text class="percentile" x="223" y="90">P15</text>
<text class="percentile" x="223" y="108">P3</text>
</svg>