<svg xmlns="http://www.w3.org/2000/svg" viewBox="0 0 260 188" role="img" aria-label="WHO Boys Height 0-5 years">
<style>
    .axis { stroke: #111; stroke-width: 1; fill: none; }
    .tick { stroke: #666; stroke-width: 1; }
    .label { fill: #222; font: 9.5px Arial, sans-serif; text-anchor: middle; }
    .ylabel { fill: #222; font: 9.5px Arial, sans-serif; text-anchor: end; }
    .curve { fill: none; stroke: #8a8f96; stroke-width: 1; stroke-linecap: round; }
    .median { fill: none; stroke: #222; stroke-width: 1; stroke-linecap: round; }
    .percentile { fill: #444; font: 700 8px Arial, sans-serif; }
  </style>
<rect x="0" y="0" width="260" height="188" fill="#fff"/>
<defs><clipPath id="clip-boys-height-0-5-minimal-svg-0"><rect x="45" y="22" width="170" height="140"/></clipPath></defs>
<path class="axis" d="M45 22 V162 H215"/>
<path class="tick" d="M45 162 V156"/>
<text class="label" x="45" y="178">0y</text>
<path class="tick" d="M79 162 V156"/>
<text class="label" x="79" y="178">1y</text>
<path class="tick" d="M113 162 V156"/>
<text class="label" x="113" y="178">2y</text>
<path class="tick" d="M147 162 V156"/>
<text class="label" x="147" y="178">3y</text>
<path class="tick" d="M181 162 V156"/>
<text class="label" x="181" y="178">4y</text>
<path class="tick" d="M215 162 V156"/>
<text class="label" x="215" y="178">5y</text>
<path class="tick" d="M45 22 H51"/>
<text class="ylabel" x="39" y="26">120</text>
<path class="tick" d="M45 57 H51"/>
<text class="ylabel" x="39" y="61">100</text>
<path class="tick" d="M45 92 H51"/>
<text class="ylabel" x="39" y="96">80</text>
<path class="tick" d="M45 127 H51"/>
<text class="ylabel" x="39" y="131">60</text>
<path class="tick" d="M45 162 H51"/>
<text class="ylabel" x="39" y="166">40</text>
<g clip-path="url(#clip-boys-height-0-5-minimal-svg-0)">
<path class="curve" d="M45.00 138.43 L53.50 117.64 L62.00 106.46 L70.50 98.42 L79.00 91.63 L87.50 85.35 L96.00 79.42 L104.50 74.18 L113.00 68.81 L130.00 60.97 L147.00 52.96 L164.00 45.66 L181.00 39.04 L198.00 32.43 L215.00 26.01"/>
<path class="curve" d="M45.00 141.23 L53.50 120.74 L62.00 109.71 L70.50 101.84 L79.00 95.17 L87.50 89.04 L96.00 83.27 L104.50 78.17 L113.00 73.10 L130.00 65.56 L147.00 57.84 L164.00 50.82 L181.00 44.52 L198.00 38.20 L215.00 32.06"/>
<path class="median" d="M45.00 144.68 L53.50 124.55 L62.00 113.70 L70.50 106.00 L79.00 99.52 L87.50 93.58 L96.00 87.98 L104.50 83.08 L113.00 78.35 L130.00 71.17 L147.00 63.83 L164.00 57.17 L181.00 51.22 L198.00 45.28 L215.00 39.50"/>
<path class="curve" d="M45.00 148.12 L53.50 128.37 L62.00 117.69 L70.50 110.16 L79.00 103.88 L87.50 98.11 L96.00 92.68 L104.50 87.98 L113.00 83.60 L130.00 76.79 L147.00 69.81 L164.00 63.53 L181.00 57.93 L198.00 52.34 L215.00 46.94"/>
<path class="curve" d="M45.00 150.92 L53.50 131.46 L62.00 120.94 L70.50 113.58 L79.00 107.42 L87.50 101.80 L96.00 96.53 L104.50 91.97 L113.00 87.89 L130.00 81.38 L147.00 74.69 L164.00 68.69 L181.00 63.41 L198.00 58.12 L215.00 52.99"/>
</g>
<text class="percentile" x="223" y="36">P97</text>
<text class="percentile" x="223" y="54">P85</text>
<text class="percentile" x="223" y="72">P50</text>
<text class="percentile" x="223" y="90">P15</text>
<text class="percentile" x="223" y="108">P3</text>
</svg>