<svg xmlns="http://www.w3.org/2000/svg" viewBox="0 0 260 188" role="img" aria-label="WHO Boys BMI 0-5 years">
<style>
    .axis { stroke: #111; stroke-width: 1; fill: none; }
    .tick { stroke: #666; stroke-width: 1; }
    .label { fill: #222; font: 9.5px Arial, sans-serif; text-anchor: middle; }
    .ylabel { fill: #222; font: 9.5px Arial, sans-serif; text-anchor: end; }
    .curve { fill: none; stroke: #8a8f96; stroke-width: 1; stroke-linecap: round; }
    .median { fill: none; stroke: #222; stroke-width: 1; stroke-linecap: round; }
    .percentile { fill: #444; font: 700 8px Arial, sans-serif; }
  </style>
<rect x="0" y="0" width="260" height="188" fill="#fff"/>
<defs><clipPath id="clip-boys-bmi-0-5-minimal-svg-0"><rect x="45" y="22" width="170" height="140"/></clipPath></defs>
<path class="axis" d="M45 22 V162 H215"/>
<path class="tick" d="M45 162 V156"/>
<text class="label" x="45" y="178">0y</text>
<path class="tick" d="M79 162 V156"/>
<text class="label" x="79" y="178">1y</text>
<path class="tick" d="M113 162 V156"/>
<text class="label" x="113" y="178">2y</text>
<path class="tick" d="M147 162 V156"/>
<text class="label" x="147" y="178">3y</text>
<path class="tick" d="M181 162 V156"/>
<text class="label" x="181" y="178">4y</text>
<path class="tick" d="M215 162 V156"/>
<text class="label" x="215" y="178">5y</text>
<path class="tick" d="M45 22 H51"/>
<text class="ylabel" x="39" y="26">25</text>
<path class="tick" d="M45 69 H51"/>
<text class="ylabel" x="39" y="73">20</text>
<path class="tick" d="M45 115 H51"/>
<text class="ylabel" x="39" y="119">15</text>
<path class="tick" d="M45 162 H51"/>
<text class="ylabel" x="39" y="166">10</text>
<g clip-path="url(#clip-boys-bmi-0-5-minimal-svg-0)">
<path class="curve" d="M45.00 110.95 L53.50 76.51 L62.00 72.77 L70.50 77.35 L79.00 79.21 L87.50 82.01 L96.00 83.88 L104.50 85.75 L113.00 86.68 L130.00 88.55 L147.00 90.41 L164.00 91.35 L181.00 92.28 L198.00 93.21 L215.00 93.21"/>
<path class="curve" d="M45.00 119.63 L53.50 86.03 L62.00 82.29 L70.50 86.03 L79.00 87.89 L87.50 90.69 L96.00 92.56 L104.50 94.43 L113.00 95.36 L130.00 97.23 L147.00 99.09 L164.00 100.03 L181.00 100.96 L198.00 101.89 L215.00 101.89"/>
<path class="median" d="M45.00 130.27 L53.50 97.60 L62.00 93.87 L70.50 96.67 L79.00 98.53 L87.50 101.33 L96.00 103.20 L104.50 105.07 L113.00 106.00 L130.00 107.87 L147.00 109.73 L164.00 110.67 L181.00 111.60 L198.00 112.53 L215.00 112.53"/>
<path class="curve" d="M45.00 140.91 L53.50 109.17 L62.00 105.44 L70.50 107.31 L79.00 109.17 L87.50 111.97 L96.00 113.84 L104.50 115.71 L113.00 116.64 L130.00 118.51 L147.00 120.37 L164.00 121.31 L181.00 122.24 L198.00 123.17 L215.00 123.17"/>
<path class="curve" d="M45.00 149.59 L53.50 118.69 L62.00 114.96 L70.50 115.99 L79.00 117.85 L87.50 120.65 L96.00 122.52 L104.50 124.39 L113.00 125.32 L130.00 127.19 L147.00 129.05 L164.00 129.99 L181.00 130.92 L198.00 131.85 L215.00 131.85"/>
</g>
<text class="percentile" x="223" y="36">P97</text>
<text class="percentile" x="223" y="54">P85</text>
<text class="percentile" x="223" y="72">P50</text>
<text class="percentile" x="223" y="90">P15</text>
<text class="percentile" x="223" y="108">P3</text>
</svg>