<svg xmlns="http://www.w3.org/2000/svg" viewBox="0 0 260 188" role="img" aria-label="WHO Girls Weight 0-5 years">
<style>
    .axis { stroke: #111; stroke-width: 1; fill: none; }
    .tick { stroke: #666; stroke-width: 1; }
    .label { fill: #222; font: 9.5px Arial, sans-serif; text-anchor: middle; }
    .ylabel { fill: #222; font: 9.5px Arial, sans-serif; text-anchor: end; }
    .curve { fill: none; stroke: #8a8f96; stroke-width: 1; stroke-linecap: round; }
    .median { fill: none; stroke: #222; stroke-width: 1; stroke-linecap: round; }
    .percentile { fill: #444; font: 700 8px Arial, sans-serif; }
  </style>
<rect x="0" y="0" width="260" height="188" fill="#fff"/>
<defs><clipPath id="clip-girls-weight-0-5-minimal-svg-0"><rect x="45" y="22" width="170" height="140"/></clipPath></defs>
<path class="axis" d="M45 22 V162 H215"/>
<path class="tick" d="M45 162 V156"/>
<text class="label" x="45" y="178">0y</text>
<path class="tick" d="M79 162 V156"/>
<text class="label" x="79" y="178">1y</text>
<path class="tick" d="M113 162 V156"/>
<text class="label" x="113" y="178">2y</text>
<path class="tick" d="M147 162 V156"/>
<text class="label" x="147" y="178">3y</text>
<path class="tick" d="M181 162 V156"/>
<text class="label" x="181" y="178">4y</text>
<path class="tick" d="M215 162 V156"/>
<text class="label" x="215" y="178">5y</text>
<path class="tick" d="M45 22 H51"/>
<text class="ylabel" x="39" y="26">25</text>
<path class="tick" d="M45 50 H51"/>
<text class="ylabel" x="39" y="54">20</text>
<path class="tick" d="M45 78 H51"/>
<text class="ylabel" x="39" y="82">15</text>
<path class="tick" d="M45 106 H51"/>
<text class="ylabel" x="39" y="110">10</text>
<path class="tick" d="M45 134 H51"/>
<text class="ylabel" x="39" y="138">5</text>
<path class="tick" d="M45 162 H51"/>
<text class="ylabel" x="39" y="166">0</text>
<g clip-path="url(#clip-girls-weight-0-5-minimal-svg-0)">
<path class="curve" d="M45.00 139.32 L53.50 122.69 L62.00 113.11 L70.50 107.23 L79.00 102.70 L87.50 98.05 L96.00 94.02 L104.50 89.37 L113.00 85.39 L130.00 77.16 L147.00 68.98 L164.00 61.37 L181.00 53.70 L198.00 46.08 L215.00 39.02"/>
<path class="curve" d="M45.00 141.45 L53.50 125.77 L62.00 116.70 L70.50 111.21 L79.00 106.95 L87.50 102.64 L96.00 98.89 L104.50 94.58 L113.00 90.88 L130.00 83.32 L147.00 75.82 L164.00 68.82 L181.00 61.87 L198.00 54.87 L215.00 48.49"/>
<path class="median" d="M45.00 144.08 L53.50 129.52 L62.00 121.12 L70.50 116.08 L79.00 112.16 L87.50 108.24 L96.00 104.88 L104.50 100.96 L113.00 97.60 L130.00 90.88 L147.00 84.16 L164.00 78.00 L181.00 71.84 L198.00 65.68 L215.00 60.08"/>
<path class="curve" d="M45.00 146.71 L53.50 133.27 L62.00 125.54 L70.50 120.95 L79.00 117.37 L87.50 113.84 L96.00 110.87 L104.50 107.34 L113.00 104.32 L130.00 98.44 L147.00 92.50 L164.00 87.18 L181.00 81.81 L198.00 76.49 L215.00 71.67"/>
<path class="curve" d="M45.00 148.84 L53.50 136.35 L62.00 129.13 L70.50 124.93 L79.00 121.62 L87.50 118.43 L96.00 115.74 L104.50 112.55 L113.00 109.81 L130.00 104.60 L147.00 99.34 L164.00 94.63 L181.00 89.98 L198.00 85.28 L215.00 81.14"/>
</g>
<text class="percentile" x="223" y="36">P97</text>
<text class="percentile" x="223" y="54">P85</text>
<text class="percentile" x="223" y="72">P50</text>
<text class="percentile" x="223" y="90">P15</text>
<text class="percentile" x="223" y="108">P3</text>
</svg>