<svg xmlns="http://www.w3.org/2000/svg" viewBox="0 0 260 188" role="img" aria-label="IAP Girls Weight 5-18 years">
<style>
    .axis { stroke: #111; stroke-width: 1; fill: none; }
    .tick { stroke: #666; stroke-width: 1; }
    .label { fill: #222; font: 9.5px Arial, sans-serif; text-anchor: middle; }
    .ylabel { fill: #222; font: 9.5px Arial, sans-serif; text-anchor: end; }
    .curve { fill: none; stroke: #8a8f96; stroke-width: 1; stroke-linecap: round; }
    .median { fill: none; stroke: #222; stroke-width: 1; stroke-linecap: round; }
    .percentile { fill: #444; font: 700 8px Arial, sans-serif; }
  </style>
<rect x="0" y="0" width="260" height="188" fill="#fff"/>
<defs><clipPath id="clip-girls-weight-5-18-minimal-svg-0"><rect x="45" y="22" width="170" height="140"/></clipPath></defs>
<path class="axis" d="M45 22 V162 H215"/>
<path class="tick" d="M45 162 V156"/>
<text class="label" x="45" y="178">5y</text>
<path class="tick" d="M87 162 V156"/>
<text class="label" x="87" y="178">8y</text>
<path class="tick" d="M130 162 V156"/>
<text class="label" x="130" y="178">11y</text>
<path class="tick" d="M173 162 V156"/>
<text class="label" x="173" y="178">14y</text>
<path class="tick" d="M215 162 V156"/>
<text class="label" x="215" y="178">18y</text>
<path class="tick" d="M45 22 H51"/>
<text class="ylabel" x="39" y="26">80</text>
<path class="tick" d="M45 57 H51"/>
<text class="ylabel" x="39" y="61">60</text>
<path class="tick" d="M45 92 H51"/>
<text class="ylabel" x="39" y="96">40</text>
<path class="tick" d="M45 127 H51"/>
<text class="ylabel" x="39" y="131">20</text>
<path class="tick" d="M45 162 H51"/>
<text class="ylabel" x="39" y="166">10</text>
<g clip-path="url(#clip-girls-weight-5-18-minimal-svg-0)">
<path class="curve" d="M45.00 132.00 L51.54 128.00 L58.08 123.80 L64.62 119.60 L71.15 115.20 L77.69 110.60 L84.23 105.80 L90.77 100.60 L97.31 95.20 L103.85 89.40 L110.38 83.20 L116.92 76.80 L123.46 70.20 L130.00 63.80 L136.54 57.80 L143.08 52.40 L149.62 47.80 L156.15 44.00 L162.69 41.20 L169.23 39.20 L175.77 37.80 L182.31 37.00 L188.85 36.40 L195.38 35.80 L201.92 35.40 L208.46 35.20 L215.00 35.00"/>
<path class="curve" d="M45.00 145.00 L51.54 142.20 L58.08 139.40 L64.62 136.60 L71.15 133.60 L77.69 130.20 L84.23 126.80 L90.77 123.00 L97.31 119.00 L103.85 114.80 L110.38 110.00 L116.92 105.20 L123.46 100.00 L130.00 94.80 L136.54 90.00 L143.08 85.60 L149.62 81.60 L156.15 78.40 L162.69 75.60 L169.23 73.40 L175.77 71.80 L182.31 70.40 L188.85 69.40 L195.38 68.20 L201.92 67.40 L208.46 66.40 L215.00 65.60"/>
<path class="median" d="M45.00 149.20 L51.54 146.80 L58.08 144.60 L64.62 142.20 L71.15 139.60 L77.69 137.00 L84.23 134.00 L90.77 131.00 L97.31 127.60 L103.85 124.00 L110.38 120.00 L116.92 115.60 L123.46 111.20 L130.00 106.80 L136.54 102.40 L143.08 98.40 L149.62 94.80 L156.15 91.80 L162.69 89.20 L169.23 87.00 L175.77 85.20 L182.31 83.80 L188.85 82.60 L195.38 81.40 L201.92 80.20 L208.46 79.00 L215.00 78.00"/>
<path class="curve" d="M45.00 152.40 L51.54 150.60 L58.08 148.60 L64.62 146.60 L71.15 144.60 L77.69 142.20 L84.23 139.80 L90.77 137.40 L97.31 134.60 L103.85 131.40 L110.38 128.20 L116.92 124.40 L123.46 120.60 L130.00 116.80 L136.54 113.00 L143.08 109.40 L149.62 106.20 L156.15 103.20 L162.69 100.80 L169.23 98.60 L175.77 97.00 L182.31 95.40 L188.85 94.00 L195.38 92.60 L201.92 91.40 L208.46 90.00 L215.00 88.80"/>
<path class="curve" d="M45.00 157.40 L51.54 156.00 L58.08 154.60 L64.62 153.20 L71.15 151.80 L77.69 150.20 L84.23 148.60 L90.77 147.00 L97.31 145.00 L103.85 143.00 L110.38 140.60 L116.92 138.00 L123.46 135.40 L130.00 132.40 L136.54 129.60 L143.08 126.80 L149.62 124.20 L156.15 121.60 L162.69 119.40 L169.23 117.40 L175.77 115.80 L182.31 114.00 L188.85 112.60 L195.38 111.00 L201.92 109.60 L208.46 108.20 L215.00 106.80"/>
</g>
<text class="percentile" x="223" y="36">P97</text>
<text class="percentile" x="223" y="54">P75</text>
<text class="percentile" x="223" y="72">P50</text>
<text class="percentile" x="223" y="90">P25</text>
<text class="percentile" x="223" y="108">P3</text>
</svg>