<svg xmlns="http://www.w3.org/2000/svg" viewBox="0 0 260 188" role="img" aria-label="WHO Girls Head Circumference 0-5 years">
<style>
    .axis { stroke: #111; stroke-width: 1; fill: none; }
    .tick { stroke: #666; stroke-width: 1; }
    .label { fill: #222; font: 9.5px Arial, sans-serif; text-anchor: middle; }
    .ylabel { fill: #222; font: 9.5px Arial, sans-serif; text-anchor: end; }
    .curve { fill: none; stroke: #8a8f96; stroke-width: 1; stroke-linecap: round; }
    .median { fill: none; stroke: #222; stroke-width: 1; stroke-linecap: round; }
    .percentile { fill: #444; font: 700 8px Arial, sans-serif; }
  </style>
<rect x="0" y="0" width="260" height="188" fill="#fff"/>
<defs><clipPath id="clip-girls-head-0-5-minimal-svg-0"><rect x="45" y="22" width="170" height="140"/></clipPath></defs>
<path class="axis" d="M45 22 V162 H215"/>
<path class="tick" d="M45 162 V156"/>
<text class="label" x="45" y="178">0y</text>
<path class="tick" d="M79 162 V156"/>
<text class="label" x="79" y="178">1y</text>
<path class="tick" d="M113 162 V156"/>
<text class="label" x="113" y="178">2y</text>
<path class="tick" d="M147 162 V156"/>
<text class="label" x="147" y="178">3y</text>
<path class="tick" d="M181 162 V156"/>
<text class="label" x="181" y="178">4y</text>
<path class="tick" d="M215 162 V156"/>
<text class="label" x="215" y="178">5y</text>
<path class="tick" d="M45 22 H51"/>
<text class="ylabel" x="39" y="26">55</text>
<path class="tick" d="M45 50 H51"/>
<text class="ylabel" x="39" y="54">50</text>
<path class="tick" d="M45 78 H51"/>
<text class="ylabel" x="39" y="82">45</text>
<path class="tick" d="M45 106 H51"/>
<text class="ylabel" x="39" y="110">40</text>
<path class="tick" d="M45 134 H51"/>
<text class="ylabel" x="39" y="138">35</text>
<path class="tick" d="M45 162 H51"/>
<text class="ylabel" x="39" y="166">30</text>
<g clip-path="url(#clip-girls-head-0-5-minimal-svg-0)">
<path class="curve" d="M45.00 127.50 L53.50 95.08 L62.00 79.96 L70.50 71.00 L79.00 64.84 L87.50 59.80 L96.00 55.43 L104.50 52.63 L113.00 50.39 L130.00 47.59 L147.00 45.35 L164.00 43.67 L181.00 41.99 L198.00 40.87 L215.00 38.69"/>
<path class="curve" d="M45.00 133.22 L53.50 101.24 L62.00 86.12 L70.50 77.16 L79.00 71.00 L87.50 65.96 L96.00 62.04 L104.50 59.24 L113.00 57.00 L130.00 54.20 L147.00 51.96 L164.00 50.28 L181.00 48.60 L198.00 47.48 L215.00 45.80"/>
<path class="median" d="M45.00 140.16 L53.50 108.80 L62.00 93.68 L70.50 84.72 L79.00 78.56 L87.50 73.52 L96.00 70.16 L104.50 67.36 L113.00 65.12 L130.00 62.32 L147.00 60.08 L164.00 58.40 L181.00 56.72 L198.00 55.60 L215.00 54.48"/>
<path class="curve" d="M45.00 147.10 L53.50 116.36 L62.00 101.24 L70.50 92.28 L79.00 86.12 L87.50 81.08 L96.00 78.28 L104.50 75.48 L113.00 73.24 L130.00 70.44 L147.00 68.20 L164.00 66.52 L181.00 64.84 L198.00 63.72 L215.00 63.16"/>
<path class="curve" d="M45.00 152.82 L53.50 122.52 L62.00 107.40 L70.50 98.44 L79.00 92.28 L87.50 87.24 L96.00 84.89 L104.50 82.09 L113.00 79.85 L130.00 77.05 L147.00 74.81 L164.00 73.13 L181.00 71.45 L198.00 70.33 L215.00 70.27"/>
</g>
<text class="percentile" x="223" y="36">P97</text>
<text class="percentile" x="223" y="54">P85</text>
<text class="percentile" x="223" y="72">P50</text>
<text class="percentile" x="223" y="90">P15</text>
<text class="percentile" x="223" y="108">P3</text>
</svg>