<svg xmlns="http://www.w3.org/2000/svg" viewBox="0 0 260 188" role="img" aria-label="WHO Girls Height 0-5 years">
<style>
    .axis { stroke: #111; stroke-width: 1; fill: none; }
    .tick { stroke: #666; stroke-width: 1; }
    .label { fill: #222; font: 9.5px Arial, sans-serif; text-anchor: middle; }
    .ylabel { fill: #222; font: 9.5px Arial, sans-serif; text-anchor: end; }
    .curve { fill: none; stroke: #8a8f96; stroke-width: 1; stroke-linecap: round; }
    .median { fill: none; stroke: #222; stroke-width: 1; stroke-linecap: round; }
    .percentile { fill: #444; font: 700 8px Arial, sans-serif; }
  </style>
<rect x="0" y="0" width="260" height="188" fill="#fff"/>
<defs><clipPath id="clip-girls-height-0-5-minimal-svg-0"><rect x="45" y="22" width="170" height="140"/></clipPath></defs>
<path class="axis" d="M45 22 V162 H215"/>
<path class="tick" d="M45 162 V156"/>
<text class="label" x="45" y="178">0y</text>
<path class="tick" d="M79 162 V156"/>
<text class="label" x="79" y="178">1y</text>
<path class="tick" d="M113 162 V156"/>
<text class="label" x="113" y="178">2y</text>
<path class="tick" d="M147 162 V156"/>
<text class="label" x="147" y="178">3y</text>
<path class="tick" d="M181 162 V156"/>
<text class="label" x="181" y="178">4y</text>
<path class="tick" d="M215 162 V156"/>
<text class="label" x="215" y="178">5y</text>
<path class="tick" d="M45 22 H51"/>
<text class="ylabel" x="39" y="26">120</text>
<path class="tick" d="M45 57 H51"/>
<text class="ylabel" x="39" y="61">100</text>
<path class="tick" d="M45 92 H51"/>
<text class="ylabel" x="39" y="96">80</text>
<path class="tick" d="M45 127 H51"/>
<text class="ylabel" x="39" y="131">60</text>
<path class="tick" d="M45 162 H51"/>
<text class="ylabel" x="39" y="166">40</text>
<g clip-path="url(#clip-girls-height-0-5-minimal-svg-0)">
<path class="curve" d="M45.00 139.83 L53.50 120.44 L62.00 109.78 L70.50 101.75 L79.00 94.61 L87.50 87.82 L96.00 81.88 L104.50 76.30 L113.00 70.93 L130.00 62.74 L147.00 54.38 L164.00 46.90 L181.00 39.76 L198.00 32.99 L215.00 26.72"/>
<path class="curve" d="M45.00 142.63 L53.50 123.54 L62.00 113.03 L70.50 105.16 L79.00 98.14 L87.50 91.67 L96.00 85.88 L104.50 80.45 L113.00 75.36 L130.00 67.47 L147.00 59.41 L164.00 52.22 L181.00 45.38 L198.00 38.90 L215.00 32.94"/>
<path class="median" d="M45.00 146.07 L53.50 127.35 L62.00 117.02 L70.50 109.33 L79.00 102.50 L87.50 96.38 L96.00 90.77 L104.50 85.52 L113.00 80.80 L130.00 73.27 L147.00 65.58 L164.00 58.75 L181.00 52.27 L198.00 46.15 L215.00 40.55"/>
<path class="curve" d="M45.00 149.52 L53.50 131.16 L62.00 121.02 L70.50 113.49 L79.00 106.86 L87.50 101.08 L96.00 95.67 L104.50 90.60 L113.00 86.24 L130.00 79.09 L147.00 71.74 L164.00 65.28 L181.00 59.17 L198.00 53.39 L215.00 48.16"/>
<path class="curve" d="M45.00 152.32 L53.50 134.26 L62.00 124.27 L70.50 116.90 L79.00 110.39 L87.50 104.93 L96.00 99.66 L104.50 94.75 L113.00 90.67 L130.00 83.81 L147.00 76.77 L164.00 70.60 L181.00 64.79 L198.00 59.31 L215.00 54.38"/>
</g>
<text class="percentile" x="223" y="36">P97</text>
<text class="percentile" x="223" y="54">P85</text>
<text class="percentile" x="223" y="72">P50</text>
<text class="percentile" x="223" y="90">P15</text>
<text class="percentile" x="223" y="108">P3</text>
</svg>