<svg xmlns="http://www.w3.org/2000/svg" viewBox="0 0 260 188" role="img" aria-label="WHO Girls BMI 0-5 years">
<style>
    .axis { stroke: #111; stroke-width: 1; fill: none; }
    .tick { stroke: #666; stroke-width: 1; }
    .label { fill: #222; font: 9.5px Arial, sans-serif; text-anchor: middle; }
    .ylabel { fill: #222; font: 9.5px Arial, sans-serif; text-anchor: end; }
    .curve { fill: none; stroke: #8a8f96; stroke-width: 1; stroke-linecap: round; }
    .median { fill: none; stroke: #222; stroke-width: 1; stroke-linecap: round; }
    .percentile { fill: #444; font: 700 8px Arial, sans-serif; }
  </style>
<rect x="0" y="0" width="260" height="188" fill="#fff"/>
<defs><clipPath id="clip-girls-bmi-0-5-minimal-svg-0"><rect x="45" y="22" width="170" height="140"/></clipPath></defs>
<path class="axis" d="M45 22 V162 H215"/>
<path class="tick" d="M45 162 V156"/>
<text class="label" x="45" y="178">0y</text>
<path class="tick" d="M79 162 V156"/>
<text class="label" x="79" y="178">1y</text>
<path class="tick" d="M113 162 V156"/>
<text class="label" x="113" y="178">2y</text>
<path class="tick" d="M147 162 V156"/>
<text class="label" x="147" y="178">3y</text>
<path class="tick" d="M181 162 V156"/>
<text class="label" x="181" y="178">4y</text>
<path class="tick" d="M215 162 V156"/>
<text class="label" x="215" y="178">5y</text>
<path class="tick" d="M45 22 H51"/>
<text class="ylabel" x="39" y="26">25</text>
<path class="tick" d="M45 69 H51"/>
<text class="ylabel" x="39" y="73">20</text>
<path class="tick" d="M45 115 H51"/>
<text class="ylabel" x="39" y="119">15</text>
<path class="tick" d="M45 162 H51"/>
<text class="ylabel" x="39" y="166">10</text>
<g clip-path="url(#clip-girls-bmi-0-5-minimal-svg-0)">
<path class="curve" d="M45.00 111.88 L53.50 82.11 L62.00 77.44 L70.50 82.01 L79.00 83.88 L87.50 86.68 L96.00 88.55 L104.50 89.48 L113.00 90.41 L130.00 92.28 L147.00 93.21 L164.00 94.15 L181.00 94.15 L198.00 94.15 L215.00 94.15"/>
<path class="curve" d="M45.00 120.56 L53.50 91.63 L62.00 86.96 L70.50 90.69 L79.00 92.56 L87.50 95.36 L96.00 97.23 L104.50 98.16 L113.00 99.09 L130.00 100.96 L147.00 101.89 L164.00 102.83 L181.00 102.83 L198.00 102.83 L215.00 102.83"/>
<path class="median" d="M45.00 131.20 L53.50 103.20 L62.00 98.53 L70.50 101.33 L79.00 103.20 L87.50 106.00 L96.00 107.87 L104.50 108.80 L113.00 109.73 L130.00 111.60 L147.00 112.53 L164.00 113.47 L181.00 113.47 L198.00 113.47 L215.00 113.47"/>
<path class="curve" d="M45.00 141.84 L53.50 114.77 L62.00 110.11 L70.50 111.97 L79.00 113.84 L87.50 116.64 L96.00 118.51 L104.50 119.44 L113.00 120.37 L130.00 122.24 L147.00 123.17 L164.00 124.11 L181.00 124.11 L198.00 124.11 L215.00 124.11"/>
<path class="curve" d="M45.00 150.52 L53.50 124.29 L62.00 119.63 L70.50 120.65 L79.00 122.52 L87.50 125.32 L96.00 127.19 L104.50 128.12 L113.00 129.05 L130.00 130.92 L147.00 131.85 L164.00 132.79 L181.00 132.79 L198.00 132.79 L215.00 132.79"/>
</g>
<text class="percentile" x="223" y="36">P97</text>
<text class="percentile" x="223" y="54">P85</text>
<text class="percentile" x="223" y="72">P50</text>
<text class="percentile" x="223" y="90">P15</text>
<text class="percentile" x="223" y="108">P3</text>
</svg>