<svg xmlns="http://www.w3.org/2000/svg" viewBox="0 0 260 188" role="img" aria-label="IAP Girls BMI Chart 5-18 years">
<style>
    .axis { stroke: #111; stroke-width: 1; fill: none; }
    .tick { stroke: #666; stroke-width: 1; }
    .label { fill: #222; font: 9.5px Arial, sans-serif; text-anchor: middle; }
    .ylabel { fill: #222; font: 9.5px Arial, sans-serif; text-anchor: end; }
    .curve { fill: none; stroke: #8a8f96; stroke-width: 1; stroke-linecap: round; }
    .median { fill: none; stroke: #222; stroke-width: 1; stroke-linecap: round; }
    .percentile { fill: #444; font: 700 8px Arial, sans-serif; }
  </style>
<rect x="0" y="0" width="260" height="188" fill="#fff"/>
<defs><clipPath id="clip-girls-bmi-5-18-minimal-svg-0"><rect x="45" y="22" width="170" height="140"/></clipPath></defs>
<path class="axis" d="M45 22 V162 H215"/>
<path class="tick" d="M45 162 V156"/>
<text class="label" x="45" y="178">5y</text>
<path class="tick" d="M87 162 V156"/>
<text class="label" x="87" y="178">8y</text>
<path class="tick" d="M130 162 V156"/>
<text class="label" x="130" y="178">11y</text>
<path class="tick" d="M173 162 V156"/>
<text class="label" x="173" y="178">14y</text>
<path class="tick" d="M215 162 V156"/>
<text class="label" x="215" y="178">18y</text>
<path class="tick" d="M45 22 H51"/>
<text class="ylabel" x="39" y="26">35</text>
<path class="tick" d="M45 57 H51"/>
<text class="ylabel" x="39" y="61">25</text>
<path class="tick" d="M45 92 H51"/>
<text class="ylabel" x="39" y="96">20</text>
<path class="tick" d="M45 127 H51"/>
<text class="ylabel" x="39" y="131">15</text>
<path class="tick" d="M45 162 H51"/>
<text class="ylabel" x="39" y="166">10</text>
<g clip-path="url(#clip-girls-bmi-5-18-minimal-svg-0)">
<path class="curve" d="M45.00 117.20 L51.54 115.52 L58.08 113.84 L64.62 112.16 L71.15 109.92 L77.69 107.68 L84.23 105.44 L90.77 103.20 L97.31 100.40 L103.85 98.16 L110.38 95.36 L116.92 92.00 L123.46 89.20 L130.00 85.84 L136.54 83.04 L143.08 79.68 L149.62 76.88 L156.15 74.64 L162.69 72.96 L169.23 71.28 L175.77 70.72 L182.31 70.16 L188.85 69.60 L195.38 69.04 L201.92 68.48 L208.46 68.48 L215.00 67.92"/>
<path class="curve" d="M45.00 131.20 L51.54 130.08 L58.08 128.96 L64.62 127.84 L71.15 126.16 L77.69 125.04 L84.23 123.36 L90.77 121.68 L97.31 119.44 L103.85 117.20 L110.38 114.96 L116.92 112.72 L123.46 109.92 L130.00 107.12 L136.54 104.88 L143.08 102.08 L149.62 99.84 L156.15 97.60 L162.69 95.92 L169.23 94.80 L175.77 93.12 L182.31 92.56 L188.85 91.44 L195.38 90.32 L201.92 89.76 L208.46 88.64 L215.00 88.08"/>
<path class="median" d="M45.00 137.92 L51.54 137.36 L58.08 136.80 L64.62 135.68 L71.15 134.56 L77.69 133.44 L84.23 132.32 L90.77 130.64 L97.31 129.52 L103.85 127.84 L110.38 125.60 L116.92 123.92 L123.46 121.68 L130.00 119.44 L136.54 117.20 L143.08 114.96 L149.62 112.72 L156.15 111.04 L162.69 109.36 L169.23 107.68 L175.77 106.56 L182.31 105.44 L188.85 104.32 L195.38 103.76 L201.92 102.64 L208.46 101.52 L215.00 100.40"/>
<path class="curve" d="M45.00 143.52 L51.54 142.96 L58.08 142.40 L64.62 141.84 L71.15 141.28 L77.69 140.16 L84.23 139.60 L90.77 138.48 L97.31 137.36 L103.85 136.24 L110.38 134.56 L116.92 132.88 L123.46 131.20 L130.00 129.52 L136.54 127.84 L143.08 125.60 L149.62 123.92 L156.15 122.24 L162.69 121.12 L169.23 119.44 L175.77 118.32 L182.31 117.20 L188.85 116.08 L195.38 114.96 L201.92 113.84 L208.46 113.28 L215.00 112.16"/>
<path class="curve" d="M45.00 148.00 L51.54 147.44 L58.08 146.88 L64.62 146.32 L71.15 146.32 L77.69 145.76 L84.23 144.64 L90.77 144.08 L97.31 143.52 L103.85 142.40 L110.38 141.28 L116.92 140.16 L123.46 139.04 L130.00 137.36 L136.54 135.68 L143.08 134.00 L149.62 132.88 L156.15 131.20 L162.69 130.08 L169.23 128.40 L175.77 127.84 L182.31 126.72 L188.85 125.60 L195.38 124.48 L201.92 123.36 L208.46 122.24 L215.00 121.12"/>
<path class="curve" d="M45.00 150.24 L51.54 149.68 L58.08 149.68 L64.62 149.12 L71.15 148.56 L77.69 148.00 L84.23 147.44 L90.77 146.88 L97.31 146.32 L103.85 145.76 L110.38 144.64 L116.92 144.08 L123.46 142.96 L130.00 141.28 L136.54 140.16 L143.08 138.48 L149.62 137.36 L156.15 136.24 L162.69 134.56 L169.23 133.44 L175.77 132.88 L182.31 131.76 L188.85 130.64 L195.38 129.52 L201.92 128.40 L208.46 127.84 L215.00 126.72"/>
<path class="curve" d="M45.00 151.36 L51.54 151.36 L58.08 150.80 L64.62 150.24 L71.15 150.24 L77.69 149.68 L84.23 149.12 L90.77 149.12 L97.31 148.56 L103.85 148.00 L110.38 146.88 L116.92 146.32 L123.46 145.20 L130.00 144.08 L136.54 142.96 L143.08 141.28 L149.62 140.16 L156.15 139.04 L162.69 137.92 L169.23 136.80 L175.77 135.68 L182.31 134.56 L188.85 134.00 L195.38 132.88 L201.92 131.76 L208.46 131.20 L215.00 130.08"/>
</g>
<text class="percentile" x="223" y="36">AE27</text>
<text class="percentile" x="223" y="54">AE23</text>
<text class="percentile" x="223" y="72">P50</text>
<text class="percentile" x="223" y="90">P25</text>
<text class="percentile" x="223" y="108">P10</text>
<text class="percentile" x="223" y="126">P5</text>
<text class="percentile" x="223" y="144">P3</text>
</svg>