<svg xmlns="http://www.w3.org/2000/svg" viewBox="0 0 260 188" role="img" aria-label="IAP Boys BMI Chart 5-18 years">
<style>
    .axis { stroke: #111; stroke-width: 1; fill: none; }
    .tick { stroke: #666; stroke-width: 1; }
    .label { fill: #222; font: 9.5px Arial, sans-serif; text-anchor: middle; }
    .ylabel { fill: #222; font: 9.5px Arial, sans-serif; text-anchor: end; }
    .curve { fill: none; stroke: #8a8f96; stroke-width: 1; stroke-linecap: round; }
    .median { fill: none; stroke: #222; stroke-width: 1; stroke-linecap: round; }
    .percentile { fill: #444; font: 700 8px Arial, sans-serif; }
  </style>
<rect x="0" y="0" width="260" height="188" fill="#fff"/>
<defs><clipPath id="clip-boys-bmi-5-18-minimal-svg-0"><rect x="45" y="22" width="170" height="140"/></clipPath></defs>
<path class="axis" d="M45 22 V162 H215"/>
<path class="tick" d="M45 162 V156"/>
<text class="label" x="45" y="178">5y</text>
<path class="tick" d="M87 162 V156"/>
<text class="label" x="87" y="178">8y</text>
<path class="tick" d="M130 162 V156"/>
<text class="label" x="130" y="178">11y</text>
<path class="tick" d="M173 162 V156"/>
<text class="label" x="173" y="178">14y</text>
<path class="tick" d="M215 162 V156"/>
<text class="label" x="215" y="178">18y</text>
<path class="tick" d="M45 22 H51"/>
<text class="ylabel" x="39" y="26">30</text>
<path class="tick" d="M45 92 H51"/>
<text class="ylabel" x="39" y="96">20</text>
<path class="tick" d="M45 162 H51"/>
<text class="ylabel" x="39" y="166">10</text>
<g clip-path="url(#clip-boys-bmi-5-18-minimal-svg-0)">
<path class="curve" d="M45.00 109.50 L51.54 108.80 L58.08 107.40 L64.62 106.00 L71.15 104.60 L77.69 102.50 L84.23 100.40 L90.77 97.60 L97.31 94.80 L103.85 91.30 L110.38 88.50 L116.92 85.00 L123.46 81.50 L130.00 77.30 L136.54 73.80 L143.08 71.00 L149.62 68.20 L156.15 65.40 L162.69 62.60 L169.23 60.50 L175.77 57.70 L182.31 55.60 L188.85 53.50 L195.38 51.40 L201.92 50.00 L208.46 47.90 L215.00 45.80"/>
<path class="curve" d="M45.00 122.10 L51.54 121.40 L58.08 120.00 L64.62 119.30 L71.15 117.90 L77.69 116.50 L84.23 115.10 L90.77 113.00 L97.31 110.90 L103.85 108.80 L110.38 106.00 L116.92 103.90 L123.46 101.10 L130.00 98.30 L136.54 95.50 L143.08 93.40 L149.62 90.60 L156.15 88.50 L162.69 86.40 L169.23 84.30 L175.77 82.20 L182.31 80.10 L188.85 78.00 L195.38 75.20 L201.92 73.80 L208.46 71.70 L215.00 69.60"/>
<path class="median" d="M45.00 129.10 L51.54 128.40 L58.08 127.70 L64.62 127.00 L71.15 126.30 L77.69 124.90 L84.23 123.50 L90.77 122.10 L97.31 120.70 L103.85 118.60 L110.38 117.20 L116.92 115.10 L123.46 113.00 L130.00 110.90 L136.54 108.10 L143.08 106.70 L149.62 104.60 L156.15 102.50 L162.69 101.10 L169.23 99.00 L175.77 96.90 L182.31 94.80 L188.85 92.70 L195.38 90.60 L201.92 88.50 L208.46 86.40 L215.00 84.30"/>
<path class="curve" d="M45.00 136.80 L51.54 136.10 L58.08 136.10 L64.62 135.40 L71.15 134.70 L77.69 133.30 L84.23 132.60 L90.77 131.20 L97.31 130.50 L103.85 129.10 L110.38 127.70 L116.92 126.30 L123.46 124.20 L130.00 122.80 L136.54 121.40 L143.08 120.00 L149.62 117.90 L156.15 116.50 L162.69 115.10 L169.23 113.70 L175.77 111.60 L182.31 110.20 L188.85 108.10 L195.38 106.00 L201.92 103.90 L208.46 101.80 L215.00 99.70"/>
<path class="curve" d="M45.00 142.40 L51.54 141.70 L58.08 141.70 L64.62 141.00 L71.15 140.30 L77.69 139.60 L84.23 138.90 L90.77 138.20 L97.31 137.50 L103.85 136.10 L110.38 135.40 L116.92 134.00 L123.46 133.30 L130.00 131.90 L136.54 130.50 L143.08 129.80 L149.62 128.40 L156.15 127.70 L162.69 126.30 L169.23 124.90 L175.77 123.50 L182.31 121.40 L188.85 120.00 L195.38 117.90 L201.92 115.80 L208.46 114.40 L215.00 112.30"/>
<path class="curve" d="M45.00 145.20 L51.54 145.20 L58.08 144.50 L64.62 144.50 L71.15 143.80 L77.69 143.10 L84.23 142.40 L90.77 141.70 L97.31 141.00 L103.85 140.30 L110.38 139.60 L116.92 138.90 L123.46 137.50 L130.00 136.80 L136.54 135.40 L143.08 134.70 L149.62 134.00 L156.15 132.60 L162.69 131.90 L169.23 130.50 L175.77 129.10 L182.31 127.70 L188.85 126.30 L195.38 124.20 L201.92 122.80 L208.46 120.70 L215.00 118.60"/>
<path class="curve" d="M45.00 147.30 L51.54 146.60 L58.08 146.60 L64.62 145.90 L71.15 145.90 L77.69 145.20 L84.23 144.50 L90.77 143.80 L97.31 143.10 L103.85 142.40 L110.38 141.70 L116.92 141.00 L123.46 140.30 L130.00 139.60 L136.54 138.90 L143.08 137.50 L149.62 136.80 L156.15 136.10 L162.69 135.40 L169.23 134.00 L175.77 132.60 L182.31 131.20 L188.85 129.80 L195.38 127.70 L201.92 126.30 L208.46 124.20 L215.00 122.80"/>
</g>
<text class="percentile" x="223" y="36">AE27</text>
<text class="percentile" x="223" y="54">AE23</text>
<text class="percentile" x="223" y="72">P50</text>
<text class="percentile" x="223" y="90">P25</text>
<text class="percentile" x="223" y="108">P10</text>
<text class="percentile" x="223" y="126">P5</text>
<text class="percentile" x="223" y="144">P3</text>
</svg>