<svg xmlns="http://www.w3.org/2000/svg" viewBox="0 0 220 180" role="img" aria-label="Girl 0 to 5 bmi vs age">
  <style>.a{stroke:#1f1f1f;stroke-width:1.8;fill:none}.t{stroke:#555;stroke-width:1}.l{fill:#333;font:11px Arial}.y{fill:#333;font:11px Arial;text-anchor:end}.c{fill:none;stroke:#9aa0a6;stroke-width:1.5;stroke-linecap:round}.m{fill:none;stroke:#6f757b;stroke-width:2;stroke-linecap:round}.p{fill:#555;font:700 10px Arial}</style>
  <path class="a" d="M16 24 V168 H186"/><path class="t" d="M16 148 H22 M16 118 H22 M16 88 H22 M16 58 H22 M16 28 H22 M50 168 V162 M92 168 V162 M136 168 V162 M186 168 V162"/>
  <text class="y" x="12" y="29">22</text><text class="y" x="12" y="59">19</text><text class="y" x="12" y="89">16</text><text class="y" x="12" y="119">13</text><text class="y" x="12" y="149">10</text><text class="l" x="42" y="178">1y</text><text class="l" x="84" y="178">2y</text><text class="l" x="127" y="178">4y</text><text class="l" x="178" y="178">5y</text>
  <path class="c" d="M16 46 C40 58,60 64,90 65 C118 66,150 62,186 58"/><path class="c" d="M16 58 C40 70,60 76,90 77 C118 78,150 75,186 71"/><path class="m" d="M16 70 C40 82,60 88,90 89 C118 90,150 87,186 84"/><path class="c" d="M16 82 C40 94,60 99,90 100 C118 101,150 98,186 95"/>
  <text class="p" x="188" y="59">P75</text><text class="p" x="188" y="72">P50</text><text class="p" x="188" y="84">P25</text><text class="p" x="188" y="96">P3</text>
</svg>
