<svg xmlns="http://www.w3.org/2000/svg" viewBox="0 0 220 180" role="img" aria-label="Girl 0 to 5 ofc vs age">
  <style>.a{stroke:#1f1f1f;stroke-width:1.8;fill:none}.t{stroke:#555;stroke-width:1}.l{fill:#333;font:11px Arial}.y{fill:#333;font:11px Arial;text-anchor:end}.c{fill:none;stroke:#9aa0a6;stroke-width:1.5;stroke-linecap:round}.m{fill:none;stroke:#6f757b;stroke-width:2;stroke-linecap:round}.p{fill:#555;font:700 10px Arial}</style>
  <path class="a" d="M16 24 V168 H186"/><path class="t" d="M16 148 H22 M16 118 H22 M16 88 H22 M16 58 H22 M16 28 H22 M50 168 V162 M92 168 V162 M136 168 V162 M186 168 V162"/>
  <text class="y" x="12" y="29">55</text><text class="y" x="12" y="59">50</text><text class="y" x="12" y="89">45</text><text class="y" x="12" y="119">40</text><text class="y" x="12" y="149">35</text><text class="l" x="42" y="178">1y</text><text class="l" x="84" y="178">2y</text><text class="l" x="127" y="178">4y</text><text class="l" x="178" y="178">5y</text>
  <path class="c" d="M16 132 C22 94,40 68,68 52 C98 38,132 30,186 26"/><path class="c" d="M16 138 C22 104,40 78,68 62 C98 48,132 40,186 38"/><path class="m" d="M16 144 C22 114,40 88,68 72 C98 60,132 52,186 50"/><path class="c" d="M16 150 C22 122,40 98,68 82 C98 70,132 62,186 60"/>
  <text class="p" x="188" y="27">P97</text><text class="p" x="188" y="38">P75</text><text class="p" x="188" y="50">P50</text><text class="p" x="188" y="61">P25</text>
</svg>
