<svg xmlns="http://www.w3.org/2000/svg" viewBox="0 0 220 180" role="img" aria-label="Girl 0 to 5 weight vs age">
  <style>.a{stroke:#1f1f1f;stroke-width:1.8;fill:none}.t{stroke:#555;stroke-width:1}.l{fill:#333;font:11px Arial}.y{fill:#333;font:11px Arial;text-anchor:end}.c{fill:none;stroke:#9aa0a6;stroke-width:1.5;stroke-linecap:round}.m{fill:none;stroke:#6f757b;stroke-width:2;stroke-linecap:round}.p{fill:#555;font:700 10px Arial}</style>
  <path class="a" d="M16 24 V168 H186"/><path class="t" d="M16 148 H22 M16 118 H22 M16 88 H22 M16 58 H22 M16 28 H22 M50 168 V162 M92 168 V162 M136 168 V162 M186 168 V162"/>
  <text class="y" x="12" y="29">25</text><text class="y" x="12" y="59">20</text><text class="y" x="12" y="89">15</text><text class="y" x="12" y="119">10</text><text class="y" x="12" y="149">5</text><text class="l" x="42" y="178">1y</text><text class="l" x="84" y="178">2y</text><text class="l" x="127" y="178">4y</text><text class="l" x="178" y="178">5y</text>
  <path class="c" d="M16 160 C38 142,62 120,96 98 C126 76,154 60,186 48"/><path class="c" d="M16 166 C38 150,62 130,96 112 C126 92,154 76,186 64"/><path class="m" d="M16 167 C38 158,62 142,96 126 C126 108,154 94,186 82"/><path class="c" d="M16 167 C38 166,62 152,96 140 C126 124,154 110,186 98"/>
  <text class="p" x="188" y="49">P97</text><text class="p" x="188" y="64">P75</text><text class="p" x="188" y="82">P50</text><text class="p" x="188" y="98">P25</text>
</svg>
