<svg xmlns="http://www.w3.org/2000/svg" viewBox="0 0 220 180" role="img" aria-label="Girl 5 to 18 bmi vs age">
  <style>.a{stroke:#1f1f1f;stroke-width:1.8;fill:none}.t{stroke:#555;stroke-width:1}.l{fill:#333;font:11px Arial}.y{fill:#333;font:11px Arial;text-anchor:end}.c{fill:none;stroke:#9aa0a6;stroke-width:1.5;stroke-linecap:round}.m{fill:none;stroke:#6f757b;stroke-width:2;stroke-linecap:round}.p{fill:#555;font:700 10px Arial}</style>
  <path class="a" d="M16 24 V168 H186"/><path class="t" d="M16 148 H22 M16 118 H22 M16 88 H22 M16 58 H22 M16 28 H22 M50 168 V162 M92 168 V162 M136 168 V162 M186 168 V162"/>
  <text class="y" x="12" y="29">35</text><text class="y" x="12" y="59">25</text><text class="y" x="12" y="89">20</text><text class="y" x="12" y="119">15</text><text class="y" x="12" y="149">10</text><text class="l" x="38" y="178">8y</text><text class="l" x="80" y="178">11y</text><text class="l" x="123" y="178">15y</text><text class="l" x="176" y="178">18y</text>
  <path class="c" d="M16 80 C44 72,74 58,108 40 C136 28,160 18,186 12"/><path class="c" d="M16 102 C44 94,74 82,108 64 C136 50,160 38,186 30"/><path class="m" d="M16 122 C44 114,74 102,108 88 C136 74,160 62,186 52"/><path class="c" d="M16 140 C44 134,74 124,108 112 C136 100,160 88,186 78"/><path class="c" d="M16 154 C44 148,74 140,108 130 C136 120,160 110,186 100"/>
  <text class="p" x="188" y="14">P97</text><text class="p" x="188" y="31">P75</text><text class="p" x="188" y="53">P50</text><text class="p" x="188" y="79">P25</text><text class="p" x="188" y="101">P3</text>
</svg>
