<svg xmlns="http://www.w3.org/2000/svg" viewBox="0 0 220 180" role="img" aria-label="Girl 5 to 18 ofc vs age adapted">
  <style>.a{stroke:#1f1f1f;stroke-width:1.8;fill:none}.t{stroke:#555;stroke-width:1}.l{fill:#333;font:11px Arial}.y{fill:#333;font:11px Arial;text-anchor:end}.c{fill:none;stroke:#9aa0a6;stroke-width:1.5;stroke-linecap:round}.m{fill:none;stroke:#6f757b;stroke-width:2;stroke-linecap:round}.p{fill:#555;font:700 10px Arial}.n{fill:#777;font:italic 10px Arial}</style>
  <text class="n" x="60" y="28">adapted</text>
  <path class="a" d="M16 24 V168 H186"/><path class="t" d="M16 148 H22 M16 118 H22 M16 88 H22 M16 58 H22 M16 28 H22 M50 168 V162 M92 168 V162 M136 168 V162 M186 168 V162"/>
  <text class="y" x="12" y="29">57</text><text class="y" x="12" y="59">55</text><text class="y" x="12" y="89">53</text><text class="y" x="12" y="119">51</text><text class="y" x="12" y="149">49</text><text class="l" x="38" y="178">8y</text><text class="l" x="80" y="178">11y</text><text class="l" x="123" y="178">15y</text><text class="l" x="176" y="178">18y</text>
  <path class="c" d="M16 102 C56 90,92 76,122 64 C148 52,166 46,186 44"/><path class="c" d="M16 114 C56 104,92 90,122 78 C148 66,166 60,186 58"/><path class="m" d="M16 126 C56 116,92 104,122 92 C148 82,166 76,186 74"/><path class="c" d="M16 138 C56 128,92 118,122 108 C148 98,166 92,186 90"/>
  <text class="p" x="188" y="45">P97</text><text class="p" x="188" y="58">P75</text><text class="p" x="188" y="74">P50</text><text class="p" x="188" y="90">P25</text>
</svg>
