<svg xmlns="http://www.w3.org/2000/svg" viewBox="0 0 220 180" role="img" aria-label="Boy 0 to 5 ofc vs age">
  <style>.a{stroke:#1f1f1f;stroke-width:1.8;fill:none}.t{stroke:#555;stroke-width:1}.l{fill:#333;font:11px Arial}.y{fill:#333;font:11px Arial;text-anchor:end}.c{fill:none;stroke:#9aa0a6;stroke-width:1.5;stroke-linecap:round}.m{fill:none;stroke:#6f757b;stroke-width:2;stroke-linecap:round}.p{fill:#555;font:700 10px Arial}</style>
  <path class="a" d="M16 24 V168 H186"/><path class="t" d="M16 148 H22 M16 118 H22 M16 88 H22 M16 58 H22 M16 28 H22 M50 168 V162 M92 168 V162 M136 168 V162 M186 168 V162"/>
  <text class="y" x="12" y="29">55</text><text class="y" x="12" y="59">50</text><text class="y" x="12" y="89">45</text><text class="y" x="12" y="119">40</text><text class="y" x="12" y="149">35</text><text class="l" x="42" y="178">1y</text><text class="l" x="84" y="178">2y</text><text class="l" x="127" y="178">4y</text><text class="l" x="178" y="178">5y</text>
  <path class="c" d="M16 128 C22 90,40 60,68 44 C98 30,132 24,186 20"/><path class="c" d="M16 136 C22 100,40 72,68 56 C98 42,132 35,186 31"/><path class="m" d="M16 144 C22 110,40 82,68 68 C98 54,132 47,186 43"/><path class="c" d="M16 152 C22 120,40 94,68 80 C98 66,132 58,186 55"/>
  <text class="p" x="188" y="21">P97</text><text class="p" x="188" y="31">P75</text><text class="p" x="188" y="44">P50</text><text class="p" x="188" y="56">P25</text>
</svg>
